<?xml version="1.0" encoding="UTF-8"?>
<!DOCTYPE svg PUBLIC "-//W3C//DTD SVG 1.1//EN" "http://www.w3.org/Graphics/SVG/1.1/DTD/svg11.dtd">
<!-- Creator: CorelDRAW 2020 (64-Bit Evaluation Version) -->
<svg xmlns="http://www.w3.org/2000/svg" xml:space="preserve" width="15712px" height="15712px" version="1.1" style="shape-rendering:geometricPrecision; text-rendering:geometricPrecision; image-rendering:optimizeQuality; fill-rule:evenodd; clip-rule:evenodd"
viewBox="0 0 13294.55 13294.55"
 xmlns:xlink="http://www.w3.org/1999/xlink"
 xmlns:xodm="http://www.corel.com/coreldraw/odm/2003">
 <defs>
  <style type="text/css">
   <![CDATA[
    .fil1 {fill:#0D1019}
    .fil5 {fill:#2F4E7C}
    .fil4 {fill:#C33E40}
    .fil2 {fill:#F9C7AC}
    .fil0 {fill:#F9ECC9}
    .fil3 {fill:white}
    .fil6 {fill:#0D1019;fill-rule:nonzero}
   ]]>
  </style>
 </defs>
 <g id="Layer_x0020_1">
  <metadata id="CorelCorpID_0Corel-Layer"/>
  <rect class="fil0" width="13294.55" height="13294.55"/>
  <g id="_2474529851632">
   <path class="fil1" d="M9145.44 2821.45c4.75,-166.25 -21.2,-291.23 -68.36,-398.55 -47.16,-107.31 -115.57,-196.93 -206.37,-250.01 -90.8,-53.07 -204.01,-69.58 -425.71,-176.9 -221.72,-107.31 -551.9,-305.43 -819.59,-383.26 -267.7,-77.84 -472.9,-35.36 -647.44,66.04 -174.53,101.43 -318.4,261.8 -392.69,465.82 -74.29,204.01 -79.02,451.67 -69.13,664.23 9.82,212.55 34.25,390.01 58.69,567.49 9.97,2.85 19.78,6.4 29.36,10.64 49.12,21.77 92.31,61.77 135.48,101.76 26.66,9.03 53.32,18.08 79.98,27.11 31.68,-74.16 60.08,-159.03 79.88,-271.92 32.02,-182.76 41.49,-438.94 46.23,-567.03 4.74,-128.09 4.74,-128.09 121.63,-90.15 116.89,37.94 350.71,113.83 606.12,140.53 255.39,26.7 532.41,4.23 723.75,-29.57 191.34,-33.78 296.98,-78.9 349.81,-101.46 52.82,-22.53 52.82,-22.53 46.58,58.61 -6.24,81.15 -18.72,243.41 -5.35,387.86 13.38,144.45 52.62,271.06 88.61,362.18 15.9,40.28 31.17,73.61 46.07,103.08 20.85,-10.82 41.7,-21.64 62.56,-32.46 27.84,-25.33 55.68,-50.66 84.18,-72.74 35.48,-207.52 70.94,-415.03 75.71,-581.3z"/>
   <path class="fil2" d="M6997.33 3576.05c14.51,-115.42 86.33,-212.97 186.06,-263.32 -8.22,1.83 -15.98,3.48 -23.19,4.91 -71.88,14.28 -89.2,7.12 -87.67,-7.64 1.53,-14.8 21.91,-37.2 69.83,-68.82 47.9,-31.59 123.35,-72.38 189.11,-94.3 65.74,-21.9 121.8,-24.96 186.03,-21.91 64.22,3.05 136.61,12.24 167.69,23.97 31.1,11.72 20.92,25.98 -19.35,40.26 -40.28,14.26 -110.61,28.53 -208.99,53.5 -39.87,10.12 -84.35,22 -127.94,33.51 2.98,-0.08 5.96,-0.12 8.95,-0.12 189.57,0 343.23,153.67 343.23,343.24 -0.01,189.58 -153.66,343.24 -343.22,343.24 -189.59,0 -343.25,-153.66 -343.25,-343.24 0,-14.66 0.92,-29.1 2.71,-43.28zm1805.23 -5.62c2.28,15.97 3.46,32.3 3.46,48.9 0,189.58 -153.67,343.24 -343.24,343.24 -189.57,0 -343.24,-153.65 -343.24,-343.24 0,-31.03 4.11,-61.1 11.84,-89.69 39.44,-146.07 172.86,-253.55 331.4,-253.55 5.17,0 10.31,0.12 15.43,0.35 -43.85,-11.57 -88.65,-23.54 -128.78,-33.74 -98.35,-24.97 -168.7,-39.24 -208.96,-53.5 -40.27,-14.28 -50.46,-28.54 -19.37,-40.26 31.08,-11.73 103.47,-20.92 167.69,-23.97 64.23,-3.05 120.29,0.01 186.05,21.9 65.75,21.93 141.18,62.72 189.1,94.31 47.9,31.62 68.29,54.02 69.81,68.8 1.55,14.77 -15.79,21.94 -87.64,7.66 -10.2,-2.02 -21.49,-4.49 -33.65,-7.27 100.58,48.81 173.73,145.28 190.1,260.06zm-14.25 -527.74c-13.37,-144.45 -0.89,-306.71 5.35,-387.86 6.24,-81.14 6.24,-81.14 -46.58,-58.61 -52.83,22.56 -158.47,67.68 -349.81,101.46 -191.34,33.8 -468.36,56.27 -723.75,29.57 -255.41,-26.7 -489.23,-102.59 -606.12,-140.53 -116.89,-37.94 -116.89,-37.94 -121.63,90.15 -4.74,128.09 -14.21,384.27 -46.23,567.03 -19.8,112.89 -48.2,197.76 -79.88,271.92 -19.62,45.92 -40.51,87.73 -61.4,129.56 27.41,222.4 57.2,425.68 91.24,594.55 2.18,10.82 4.38,21.5 6.6,32.04 80.15,380.67 183.86,571.59 305.28,717.73 121.38,146.13 260.43,247.48 416,307.58 155.58,60.11 327.64,78.98 483.22,54.24 155.57,-24.76 294.62,-93.12 417.2,-194.47 48.47,-40.07 94.34,-85.31 136.84,-134.39 65,-75.05 122.08,-159.1 168.4,-247.47 66.24,-126.4 110.48,-261.6 144.09,-531.47 5.25,-42.15 10.25,-87.58 15.03,-136.79 13.59,-139.97 25.44,-310.44 36.21,-499.68 -18.28,-31.04 -36.55,-62.09 -55.38,-99.3 -14.9,-29.47 -30.17,-62.8 -46.07,-103.08 -35.99,-91.12 -75.23,-217.73 -88.61,-362.18z"/>
   <path class="fil3" d="M8922.99 3507.95c18.83,37.21 37.1,68.26 55.39,99.3 2.44,-43 4.84,-86.96 7.17,-131.76 -20.86,10.82 -41.71,21.64 -62.56,32.46z"/>
   <path class="fil2" d="M8985.55 3475.49c-2.33,44.8 -4.73,88.76 -7.17,131.76 -10.78,189.24 -22.63,359.71 -36.22,499.68 -4.78,49.21 -9.78,94.64 -15.03,136.79 24.75,15.12 49.52,30.23 78.95,33.13 29.41,2.9 63.51,-6.4 106.91,-28.09 43.41,-21.69 96.1,-55.8 148.78,-133.3 52.71,-77.5 105.41,-198.38 140.28,-307.67 34.87,-109.26 51.93,-206.89 43.41,-283.62 -8.54,-76.72 -42.63,-132.52 -94.56,-163.52 -51.93,-31.01 -121.66,-37.2 -185.52,-13.94 -33.19,12.1 -64.8,32.17 -95.65,56.04 -28.5,22.08 -56.34,47.41 -84.18,72.74z"/>
   <path class="fil2" d="M8802.56 3570.43c-16.37,-114.78 -89.52,-211.25 -190.1,-260.06 -38.58,-8.88 -85.83,-21.16 -134.25,-33.93 -5.12,-0.23 -10.26,-0.35 -15.43,-0.35 -158.54,0 -291.96,107.48 -331.4,253.55 -7.73,28.59 -11.84,58.66 -11.84,89.69 0,189.59 153.67,343.24 343.24,343.24 189.57,0 343.24,-153.66 343.24,-343.24 0,-16.6 -1.18,-32.93 -3.46,-48.9zm-341.99 -182.44c65.01,-0.02 117.73,52.7 117.73,117.73 0,65.02 -52.72,117.73 -117.73,117.73 -65.02,0 -117.74,-52.71 -117.74,-117.73 0,-65.03 52.72,-117.73 117.74,-117.73z"/>
   <path class="fil3" d="M6758.26 3645.38c-6.31,-51.26 -12.5,-103.55 -18.58,-156.67 -43.17,-39.99 -86.36,-79.99 -135.48,-101.76 -9.58,-4.24 -19.39,-7.79 -29.36,-10.64 -41.14,-11.74 -84.92,-11.45 -126.42,1.76 -51.58,16.42 -99.62,52.75 -130.08,103.73 -30.48,50.99 -43.39,116.62 -31.67,201 11.74,84.38 48.07,187.53 97.28,281.86 49.23,94.36 111.34,179.92 168.18,230.3 56.84,50.41 108.42,65.66 157.09,67.27 48.69,1.64 94.48,-10.33 140.28,-22.3 -34.04,-168.87 -63.83,-372.15 -91.24,-594.55z"/>
   <path class="fil2" d="M6739.68 3488.71c6.08,53.12 12.27,105.41 18.58,156.67 -6.31,-51.26 -12.5,-103.55 -18.58,-156.67zm-135.48 -101.76c-9.58,-4.24 -19.39,-7.79 -29.36,-10.64 -41.14,-11.74 -84.92,-11.45 -126.42,1.76 -51.58,16.42 -99.62,52.75 -130.08,103.73 -30.48,50.99 -43.39,116.62 -31.67,201 11.74,84.38 48.07,187.53 97.28,281.86 49.23,94.36 111.34,179.92 168.18,230.3 56.84,50.41 108.42,65.66 157.09,67.27 48.69,1.64 94.48,-10.33 140.28,-22.3 -34.04,-168.87 -63.83,-372.15 -91.24,-594.55 20.89,-41.83 41.78,-83.64 61.4,-129.56 -26.66,-9.03 -53.32,-18.08 -79.98,-27.11 -43.17,-39.99 -86.36,-79.99 -135.48,-101.76z"/>
   <path class="fil2" d="M7183.39 3312.73c-99.73,50.35 -171.55,147.9 -186.06,263.32 -1.79,14.18 -2.71,28.62 -2.71,43.28 0,189.58 153.66,343.24 343.25,343.24 189.56,0 343.21,-153.66 343.22,-343.24 0,-189.57 -153.66,-343.24 -343.23,-343.24 -2.99,0 -5.97,0.04 -8.95,0.12 -53.16,14.04 -104.99,27.5 -145.52,36.52zm44.61 192.99c-0.02,-65.03 52.72,-117.73 117.73,-117.73 65.03,0 117.75,52.7 117.75,117.73 -0.01,65.02 -52.72,117.73 -117.75,117.73 -65.01,0 -117.73,-52.71 -117.73,-117.73z"/>
   <path class="fil1" d="M8477.8 5157.05c-122.58,101.35 -261.63,169.71 -417.2,194.47 -155.58,24.74 -327.64,5.87 -483.22,-54.24 -155.57,-60.1 -294.62,-161.45 -416,-307.58 1.06,134.53 2.12,269.06 3.17,403.59 70.87,57.06 141.71,114.14 251.14,160.5 109.42,46.36 257.39,82.02 411.62,72.22 154.21,-9.81 314.69,-65.07 446.92,-166.7 132.21,-101.62 236.17,-249.6 340.14,-397.58 0.09,-12.83 0.18,-25.83 0.27,-39.07 -42.5,49.08 -88.37,94.32 -136.84,134.39z"/>
   <path class="fil2" d="M8274.23 5459.31c-132.23,101.63 -292.71,156.89 -446.92,166.7 -154.23,9.8 -302.2,-25.86 -411.62,-72.22 -109.43,-46.36 -180.27,-103.44 -251.13,-160.5 0.64,81.28 1.28,162.57 1.91,243.85 2.18,10.25 3.36,27.59 5.01,51.61 5.93,86.47 17.76,259.37 23.69,345.84 2.56,37.5 4.02,58.74 16.14,66.23 6.72,4.14 16.7,4.07 31.94,0.21 20.73,-5.23 51.19,-17.47 96.41,-35.64 138.58,-55.67 415.73,-167 675.94,-319.13 206.85,-120.93 403.02,-267.64 596.96,-419.64 0.63,-92.97 1.19,-174.71 1.81,-264.89 -103.97,147.98 -207.93,295.96 -340.14,397.58z"/>
   <path class="fil4" d="M4181.39 7098.79c-171.94,-329.02 -343.86,-658.04 -443.22,-830.79 -99.36,-172.75 -126.15,-189.24 -316.72,-184.08 -190.57,5.14 -544.91,31.93 -724.15,63.84 -179.24,31.94 -183.36,69.02 -88.67,259.77 83.73,168.65 244.75,457.45 414.69,760.12 31.35,-8.49 87.22,34.89 211.92,110.81 147.27,89.68 390.58,224.74 511.17,291.25 120.63,66.51 118.56,64.44 18.65,-80.79 -99.92,-145.26 -297.69,-433.67 -406.87,-609.82 -109.2,-176.13 -129.8,-239.99 -127.14,-283.69 2.67,-43.69 28.57,-67.21 54.5,-90.75 56.85,7.11 113.71,14.23 187.15,71.09 73.45,56.84 163.49,163.46 281.92,334.01 118.47,170.61 265.37,405.15 386.19,580.46 -7.91,-131.88 -15.8,-263.76 2.76,-333.26 8.25,-30.91 21.74,-49.47 37.82,-58.17z"/>
   <path class="fil5" d="M9048.12 5624.75c-364.58,319.41 -729.17,638.81 -1059.52,1022.36 -39.57,45.96 -78.66,92.83 -117.31,140.57 -283.83,350.67 -543.33,747.74 -794.61,1166.91 -47.61,79.43 -94.93,159.66 -142,240.53 -235.17,404.08 -464.2,824.67 -693.23,1245.26 -22.68,-10.17 -45.1,-20.2 -67.17,-30.06 -155.29,-69.33 -294.48,-130.49 -398.95,-176.4 -258.56,-113.61 -304.51,-133.79 -377.56,-39.36 -15.79,20.4 -32.85,46.17 -53.59,77.49 -106.95,161.49 -311.87,470.97 -449.89,681.08 -12.63,19.22 -24.68,37.6 -36.05,54.96 -135.77,207.24 -173.89,269.16 -176.27,331.1 -2.39,61.95 30.97,123.86 157.22,233.44 20.02,17.38 42.39,35.96 67.83,56.12 134.99,106.92 356.9,258.28 777.79,510.8 500.22,300.14 1281.55,743.2 1834.18,940.91 552.62,197.71 876.58,150.09 1360.14,-333.48 154.64,-154.63 325.61,-353.87 498.01,-578.35 366.7,-477.46 739.91,-1069.2 976.47,-1589.3 347.79,-764.65 400.19,-1374.44 393.03,-1765.11 -7.14,-390.64 -73.83,-562.15 -152.43,-707.45 -78.63,-145.32 -169.15,-264.41 -438.32,-502.62 -269.16,-238.21 -716.99,-595.5 -979.02,-848 -49.01,-47.24 -91.53,-90.8 -128.75,-131.4z"/>
   <path class="fil3" d="M7988.6 6647.11c330.35,-383.55 694.94,-702.95 1059.51,-1022.35 -161.78,-176.36 -223.74,-296.44 -285.71,-416.48 -49.89,39.57 -99.79,79.13 -149.83,118.35 -193.95,151.99 -390.12,298.7 -596.97,419.63 -260.21,152.13 -537.36,263.46 -675.94,319.13 -45.22,18.17 -75.68,30.41 -96.41,35.63 82.45,138.26 164.9,276.51 220.14,404.03 11.98,27.65 22.68,54.79 32.23,80.94 34.53,94.5 54.1,176.07 65.08,221.82 14.03,58.4 14.03,58.4 63.45,45.31 49.42,-13.07 148.28,-39.27 247.14,-65.44 38.65,-47.74 77.74,-94.61 117.31,-140.57z"/>
   <path class="fil3" d="M7076.68 7954.59c251.28,-419.17 510.78,-816.24 794.61,-1166.91 -98.86,26.17 -197.72,52.37 -247.14,65.44 -49.42,13.09 -49.42,13.09 -63.45,-45.31 -10.98,-45.75 -30.55,-127.32 -65.08,-221.82 -89.6,31.03 -179.19,62.05 -223.97,77.56 -44.79,15.52 -44.79,15.52 -93.5,268.2 -48.71,252.68 -146.08,758.02 -243.47,1263.37 47.07,-80.89 94.39,-161.1 142,-240.53z"/>
   <path class="fil3" d="M6917.23 6405.89c59.13,-60.7 176.61,-182.9 294.08,-305.07 -12.12,-7.49 -13.58,-28.73 -16.14,-66.23 -5.93,-86.47 -17.76,-259.37 -23.69,-345.84 -1.65,-24.02 -2.83,-41.36 -5.01,-51.61 -5.66,-26.62 -18.02,-5.24 -62.5,71.74 -36.65,63.44 -95.11,164.61 -161.4,295.3 -45.1,88.93 -93.84,191.53 -141.79,305.18 -5.26,12.47 -10.52,25.08 -15.75,37.83 23.85,39.28 47.68,78.56 59.99,98.59 12.3,20.04 13.08,20.82 72.21,-39.89z"/>
   <path class="fil4" d="M7211.31 6100.82c-117.47,122.17 -234.95,244.37 -294.08,305.07 25.33,72.39 50.66,144.73 63.32,180.92 12.66,36.18 12.66,36.18 -53.55,142.88 -66.19,106.71 -198.59,320.09 -294.7,488.87 -96.11,168.79 -155.92,292.95 -215.74,417.11 -78.59,395.75 -144.84,826.07 -182.27,1118.74 -45.35,354.62 -48.39,507.18 -51.35,582.83 -2.95,75.63 -5.8,74.36 -8.66,73.08 22.07,9.86 44.49,19.89 67.17,30.06 229.03,-420.59 458.06,-841.18 693.23,-1245.26 97.39,-505.35 194.76,-1010.69 243.47,-1263.37 48.71,-252.68 48.71,-252.68 93.5,-268.2 44.78,-15.51 134.37,-46.53 223.97,-77.56 -9.55,-26.15 -20.25,-53.29 -32.23,-80.94 -55.24,-127.52 -137.69,-265.77 -220.14,-404.02 -15.24,3.86 -25.23,3.93 -31.94,-0.21z"/>
   <path class="fil3" d="M6980.55 6586.81c-12.66,-36.19 -37.99,-108.53 -63.32,-180.92 -59.13,60.71 -59.91,59.93 -72.21,39.89 -12.31,-20.03 -36.14,-59.31 -60.01,-98.59 -112.76,274.02 -220.84,611.19 -317.05,1043.52 -17.57,79.02 -34.77,161.21 -51.4,244.96 59.82,-124.16 119.63,-248.32 215.74,-417.11 96.11,-168.78 228.51,-382.16 294.7,-488.87 66.21,-106.7 66.21,-106.7 53.55,-142.88z"/>
   <path class="fil5" d="M6467.96 7390.71c96.21,-432.33 204.29,-769.5 317.05,-1043.52 5.25,-12.75 10.51,-25.35 15.77,-37.83 47.95,-113.65 96.69,-216.25 141.81,-305.17 -332.69,52.39 -665.37,104.76 -940.7,198.48 -275.33,93.73 -493.33,228.78 -693.89,491.13 -200.53,262.36 -383.67,652.01 -566.79,1041.67 59.09,63.27 118.25,125.7 167.19,180 97.14,107.81 154,183.61 165.83,286.66 11.87,103.08 -21.32,233.37 -35.54,310.37 -14.21,77 -9.47,100.69 53.54,205.48 62.99,104.79 184.26,290.7 305.54,476.58 73.05,-94.43 119,-74.25 377.56,39.36 104.47,45.91 243.66,107.07 398.95,176.4 2.86,1.28 5.71,2.55 8.66,-73.08 2.96,-75.65 6,-228.21 51.35,-582.83 37.43,-292.67 103.68,-722.99 182.27,-1118.74 16.63,-83.75 33.83,-165.94 51.4,-244.96z"/>
   <path class="fil2" d="M5397.77 9194.56c-121.28,-185.88 -242.55,-371.79 -305.54,-476.58 -63.01,-104.79 -67.75,-128.48 -53.54,-205.48 14.22,-77 47.41,-207.29 35.54,-310.37 -11.83,-103.05 -68.69,-178.85 -165.83,-286.66 -48.94,-54.3 -108.1,-116.73 -167.19,-180 -58.18,-62.32 -116.29,-125.46 -164.48,-182.47 -97.16,-114.9 -154,-204.92 -201.4,-280.74 -47.36,-75.81 -85.28,-137.4 -126.74,-164.66 -23.01,-15.12 -47.12,-19.66 -67.2,-8.81 -16.08,8.7 -29.57,27.26 -37.82,58.17 -18.56,69.5 -10.67,201.38 -2.76,333.26 -120.82,-175.31 -267.72,-409.85 -386.19,-580.46 -118.43,-170.55 -208.47,-277.17 -281.92,-334.01 -73.44,-56.86 -130.3,-63.98 -187.15,-71.09 -25.93,23.54 -51.83,47.06 -54.5,90.75 -2.66,43.7 17.94,107.56 127.14,283.69 109.18,176.15 306.95,464.56 406.87,609.82 99.91,145.23 101.98,147.3 -18.65,80.79 -120.59,-66.51 -363.9,-201.57 -511.17,-291.25 -124.7,-75.92 -180.57,-119.3 -211.92,-110.79 -5.67,1.53 -10.54,4.78 -14.87,9.82 -28.27,32.98 -33.57,143.24 17.9,242.18 33.73,64.84 91.83,124.82 165.15,188.47 9.9,49.24 20.12,96.73 30.99,140.33 17.91,71.77 37.64,133.1 88.66,201.66 -5.6,73.22 -11.22,146.43 1.41,213.96 12.65,67.5 43.57,129.29 151.71,268.36 58.87,75.68 140.61,174.25 222.49,268.3 68.58,78.76 137.23,154.35 192.63,210.69 99.53,101.21 156.25,140.27 260.56,237.94 23.07,21.6 48.48,46.07 77.19,74.71 158.5,158.18 417.81,443.61 677.15,729.04 138.02,-210.11 342.94,-519.59 449.89,-681.08 20.74,-31.32 37.8,-57.09 53.59,-77.49z"/>
   <path class="fil2" d="M4139.95 9149.38c-104.31,-97.67 -161.03,-136.73 -260.56,-237.94 -55.4,-56.34 -124.05,-131.93 -192.63,-210.69 22.09,86.77 44.16,173.57 84.11,259.06 39.96,85.54 97.75,169.76 155.58,254.01 57.61,-17.38 135.56,-40.91 213.5,-64.44z"/>
   <path class="fil5" d="M4139.95 9149.38c-77.94,23.53 -155.89,47.06 -213.5,64.44 -22.15,6.68 -41.29,12.46 -56.27,16.98 -53.95,16.3 -53.95,16.3 -11.64,296.75 42.31,280.48 126.93,841.39 224.07,1186.1 97.13,344.71 206.83,473.18 342.63,521.69 135.81,48.49 297.74,17 459.7,-14.5 7.35,-197.37 14.72,-394.73 22.08,-592.09 -25.44,-20.16 -47.81,-38.74 -67.83,-56.12 -126.25,-109.58 -159.61,-171.49 -157.22,-233.44 2.38,-61.94 40.5,-123.86 176.27,-331.1 11.37,-17.36 23.42,-35.74 36.05,-54.96 -259.34,-285.43 -518.65,-570.86 -677.15,-729.04 -28.71,-28.64 -54.12,-53.11 -77.19,-74.71z"/>
   <path class="fil5" d="M5684.81 11139.55c-420.89,-252.52 -642.8,-403.88 -777.79,-510.8 -7.36,197.36 -14.73,394.72 -22.08,592.09 -25.52,684.02 -51,1368.06 -76.52,2052.07 1579.69,0 3159.37,0 4739.05,0 -56.78,-701.42 -113.55,-1402.85 -170.33,-2104.28 -172.4,224.48 -343.37,423.72 -498.01,578.35 -483.56,483.57 -807.52,531.19 -1360.14,333.48 -552.63,-197.71 -1333.96,-640.77 -1834.18,-940.91z"/>
   <path class="fil6" d="M8743.23 5218.16c-5.45,-10.59 -1.29,-23.62 9.3,-29.07 10.59,-5.46 23.62,-1.29 29.08,9.3 75.39,146.09 150.82,292.23 410.24,542.21 163.07,157.15 397.75,354.58 616.48,538.59 133.33,112.16 260.79,219.39 361.84,308.81 135.51,119.93 226.16,209.97 292.81,288.34l1.05 1.35c66.75,78.66 109.52,145.52 149.18,218.85 40.03,73.98 77.03,154.71 104.97,266.79 27.72,111.19 46.42,253.31 50.01,450.57 3.59,196.5 -7.76,448.11 -63.75,746.61 -55.97,298.4 -156.5,643.72 -331.14,1027.68 -169.64,372.98 -409.41,782.79 -666.76,1161.1 -271.76,399.53 -563.1,763.96 -812.12,1012.98 -244.72,244.74 -449.87,379.34 -664.74,427.96 -215.13,48.7 -437.91,10.79 -717.96,-89.41 -234.87,-84.02 -511.21,-212.39 -789.89,-355.35 -378.06,-193.93 -759.84,-414.44 -1048.11,-587.39 -250.17,-150.12 -430.42,-264.72 -564.06,-355.61 -134.05,-91.17 -221.03,-158.36 -284.6,-213.52 -64.77,-56.22 -105.98,-100.62 -130.89,-139.25 -26.49,-41.08 -35.09,-76.04 -33.75,-111.27 1.32,-34.53 12.16,-68.22 40.73,-120.61 27.48,-50.37 71.06,-117.86 139,-221.56 132.15,-201.71 365.65,-554.35 484,-733.08l2.03 -3.06c126.75,-191.4 126.76,-191.4 457.77,-45.97 314.65,138.25 943.98,414.78 1380.3,636.52 218.89,111.24 389.43,208.77 524.13,300.67 135.46,92.41 235.1,179.46 311.49,269.17 76.66,90.05 129.49,182.34 170.42,275.7 40.65,92.75 69.46,186.31 98.21,279.8 3.49,11.39 -2.9,23.47 -14.28,26.96 -11.38,3.49 -23.46,-2.9 -26.95,-14.28 -28.39,-92.27 -56.81,-184.61 -96.53,-275.23 -39.46,-90.02 -90.25,-178.82 -163.65,-265.05 -73.67,-86.53 -170.59,-171.03 -303.06,-261.4 -133.25,-90.9 -302.21,-187.53 -519.22,-297.81 -435.48,-221.32 -1063.91,-497.45 -1378.1,-635.5 -297.84,-130.86 -297.85,-130.86 -404.53,30.25l-2.03 3.07c-116.38,175.76 -346,522.53 -483.83,732.9 -67.81,103.54 -111.2,170.65 -137.31,218.52 -25,45.86 -34.44,74.13 -35.49,101.52 -1.02,26.66 5.87,53.68 26.98,86.42 22.72,35.2 61.33,76.59 122.79,129.94 62.67,54.39 148.43,120.63 280.54,210.49 132.53,90.13 312.05,204.23 562.04,354.25 288.03,172.81 669.13,392.95 1045.56,586.04 276.6,141.9 551.12,269.4 784.83,353 272.51,97.49 488.11,134.64 693.97,88.05 206.13,-46.64 404.81,-177.65 643.61,-416.46 247.56,-247.57 537.07,-609.7 807.04,-1006.57 255.87,-376.18 494.32,-783.7 663.04,-1154.68 173.14,-380.65 272.71,-722.59 328.1,-1017.88 55.37,-295.22 66.62,-543.87 63.07,-737.99 -3.52,-193.37 -21.78,-332.39 -48.83,-440.91 -26.83,-107.64 -62.48,-185.36 -101.06,-256.68 -38.49,-71.14 -79.83,-135.83 -144,-211.46l-1.17 -1.28c-65.51,-77.01 -154.78,-165.68 -288.43,-283.95 -102.06,-90.34 -228.62,-196.79 -360.99,-308.14 -219.72,-184.85 -455.46,-383.16 -618.68,-540.46 -264.61,-255 -341.67,-404.28 -418.7,-553.53z"/>
   <path class="fil6" d="M7899.67 10373.3c-11.3,-3.78 -17.39,-16.01 -13.61,-27.3 3.78,-11.29 16.01,-17.38 27.3,-13.6l298.49 100.68c11.29,3.79 17.39,16.01 13.6,27.3 -3.78,11.3 -16,17.39 -27.29,13.61l-298.49 -100.69z"/>
   <path class="fil6" d="M8386.63 10532.6c-11.01,-4.52 -16.26,-17.13 -11.74,-28.14 4.52,-11.02 17.13,-16.27 28.14,-11.74l138.91 57.2c11.01,4.52 16.27,17.13 11.74,28.14 -4.52,11.01 -17.13,16.26 -28.14,11.74l-138.91 -57.2z"/>
   <path class="fil6" d="M7752.22 10218.91c-5.4,10.63 -18.43,14.87 -29.06,9.46 -10.63,-5.4 -14.87,-18.43 -9.47,-29.06 103.54,-203.37 207.12,-406.78 312.55,-618.51 105.97,-212.83 212.9,-432.05 321.62,-663.95 46.86,-99.93 99.35,-213.74 151.77,-327.44 171.71,-372.37 343.48,-744.89 491.66,-996.3 96.53,-163.78 182.85,-275.84 264.05,-361.98 81.14,-86.09 157.07,-146.22 232.99,-206.31 9.32,-7.37 22.88,-5.77 30.25,3.55 7.37,9.33 5.77,22.88 -3.55,30.25 -74.43,58.92 -148.89,117.87 -228.27,202.1 -79.34,84.18 -163.77,193.79 -258.3,354.18 -146.63,248.8 -318.15,620.77 -489.61,992.59 -49.23,106.76 -98.44,213.47 -151.95,327.61 -110.86,236.45 -217.49,455.16 -321.96,664.96 -104.99,210.87 -208.87,414.88 -312.72,618.85z"/>
   <path class="fil6" d="M9703 6968.95c-11.7,2.18 -22.99,-5.53 -25.17,-17.24 -2.19,-11.7 5.53,-22.99 17.23,-25.18l197.34 -37.58c11.7,-2.18 22.99,5.53 25.18,17.24 2.18,11.7 -5.53,22.99 -17.24,25.17l-197.34 37.59z"/>
   <path class="fil6" d="M4808.42 13294.55c-11.95,0 -21.64,-9.7 -21.64,-21.64 0,-11.95 9.69,-21.64 21.64,-21.64l4739.05 0c11.95,0 21.65,9.69 21.65,21.64 0,11.94 -9.7,21.64 -21.65,21.64l-4739.05 0z"/>
   <path class="fil6" d="M9355.59 11170.33c-0.92,-11.9 7.97,-22.32 19.86,-23.24 11.9,-0.92 22.32,7.97 23.24,19.86l170.34 2104.27c0.92,11.89 -7.98,22.32 -19.87,23.24 -11.89,0.92 -22.32,-7.97 -23.24,-19.87l-170.33 -2104.26z"/>
   <path class="fil6" d="M4885.46 10627.97c0.42,-11.89 10.42,-21.2 22.32,-20.78 11.89,0.42 21.2,10.42 20.78,22.32l-98.59 2644.16c-0.43,11.9 -10.43,21.21 -22.32,20.79 -11.89,-0.42 -21.21,-10.42 -20.78,-22.32l98.59 -2644.17z"/>
   <path class="fil6" d="M6165.32 9429.93c-10.82,-4.94 -15.59,-17.74 -10.65,-28.56 0.8,-1.77 1.81,-3.36 2.99,-4.78 1.2,-9.17 2.45,-26.88 3.73,-60.12l0.66 -17.68c2.97,-81.41 8.68,-237.12 50.87,-567.1 24.99,-195.47 62.69,-451.37 108.11,-716.55 37.37,-218.13 80.23,-443.79 125.89,-649.09 50.57,-227.22 104.31,-427.97 160.17,-606.84 55.94,-179.1 114.26,-337.02 173.82,-478.22 119.01,-282.07 242.53,-495.86 304.32,-602.83l0.47 -0.81c96.58,-167.09 96.6,-166.89 107.33,-10.03l23.69 345.84c3.88,56.77 3.91,56.79 114.93,12.19 68.94,-27.68 172.38,-69.24 291.49,-123.03 118.79,-53.64 252.56,-119.23 381.57,-194.65 129.66,-75.88 254.88,-161.68 377.79,-252.42 122.93,-90.75 244.72,-187.33 366.48,-283.88 9.32,-7.42 22.92,-5.86 30.34,3.47 7.42,9.32 5.86,22.91 -3.46,30.34 -121.54,96.38 -243.1,192.76 -367.65,284.71 -124.58,91.97 -251.18,178.74 -381.71,255.05 -131.2,76.62 -266.14,142.8 -385.61,196.75 -119.14,53.81 -223.58,95.77 -293.2,123.72 -166.1,66.74 -166.12,66.72 -174.08,-49.38l-23.68 -345.85c-1.07,-15.72 -1.1,-15.79 -26.84,28.74l-0.78 1.37c-61.58,106.59 -184.12,318.81 -301.67,597.44 -58.85,139.48 -116.64,296.07 -172.31,474.33 -55.75,178.51 -109.22,378.12 -159.33,603.29 -45.17,203.05 -87.9,428.25 -125.38,647.05 -45.59,266.09 -83.17,521.05 -107.93,714.71 -41.93,327.89 -47.58,482.42 -50.54,563.21l-0.66 17.68c-1.51,38.83 -3.07,58.28 -4.62,68.02 -5.88,36.93 -20.16,30.46 -34.55,23.91z"/>
   <path class="fil6" d="M9033.93 5608.54c8.95,-7.83 22.58,-6.92 30.41,2.03 7.83,8.95 6.93,22.59 -2.03,30.42 -363.96,318.85 -727.93,637.71 -1057.39,1020.23 -164.63,191.17 -320.81,398.38 -471.36,617.13 -150.62,218.86 -295.8,449.49 -438.37,687.32 -285.32,475.95 -559.93,980.21 -834.51,1484.42l-0.15 0.43c-5.59,10.54 -18.7,14.55 -29.24,8.96 -10.54,-5.6 -14.55,-18.71 -8.95,-29.24l0.38 -0.58c274.98,-504.96 550.01,-1009.98 835.45,-1486.15 142.91,-238.39 288.58,-469.78 439.9,-689.67 151.45,-220.02 308.55,-428.47 474.22,-620.85 331.22,-384.55 696.44,-704.51 1061.64,-1024.45z"/>
   <path class="fil6" d="M7224.74 6112.1c-6.11,-10.22 -2.79,-23.48 7.43,-29.59 10.22,-6.1 23.48,-2.78 29.59,7.44 41.2,69.08 82.42,138.18 120.62,206.64 38.05,68.2 72.8,135.28 100.8,199.93 28.18,65.06 49.27,126.85 65.05,179.67 15.51,51.94 26.27,96.78 33.43,126.64 8.85,36.85 8.86,36.86 36.99,29.42l247.15 -65.45c11.52,-3.02 23.34,3.86 26.37,15.38 3.02,11.53 -3.86,23.34 -15.38,26.37l-247.15 65.44c-70.71,18.73 -70.72,18.72 -89.91,-61.2 -6.83,-28.51 -17.12,-71.33 -32.92,-124.26 -15.56,-52.05 -36.12,-112.49 -63.18,-174.94 -27.21,-62.84 -61.37,-128.72 -98.94,-196.05 -37.44,-67.09 -78.7,-136.28 -119.95,-205.44z"/>
   <path class="fil6" d="M7195.78 6085.86c8.25,-8.59 21.92,-8.84 30.5,-0.59 8.59,8.25 8.84,21.92 0.59,30.51l-11.1 11.54c-114.13,118.68 -226.56,235.6 -283.07,293.63 -31.02,31.86 -47,47.73 -58.92,54.14 -26.99,14.52 -34.03,3.39 -47.17,-17.99l-60 -98.77c-6.16,-10.17 -2.9,-23.42 7.27,-29.58 10.16,-6.15 23.41,-2.9 29.57,7.27l57.9 95.04c8.05,-7.11 20.8,-20.08 40.41,-40.21 58.01,-59.56 169.61,-175.62 282.92,-293.44l11.1 -11.55z"/>
   <path class="fil6" d="M6896.87 6413c-3.92,-11.24 2.02,-23.54 13.26,-27.46 11.24,-3.93 23.54,2.01 27.46,13.26l63.31 180.91c16.06,45.87 16.06,45.91 -55.55,161.3 -32.48,52.35 -81.24,130.93 -136.06,221.08 -53.29,87.63 -110.32,183 -158.23,267.12 -95.55,167.84 -155.22,291.63 -214.82,415.34l-0.07 0.17c-5,10.82 -17.83,15.56 -28.65,10.56 -10.82,-4.99 -15.56,-17.83 -10.57,-28.65l0.24 -0.5c59.93,-124.38 119.88,-248.82 216.34,-418.22 48.18,-84.63 105.45,-180.38 158.91,-268.31 51.96,-85.41 102.52,-166.91 136.22,-221.23 60.79,-97.96 60.78,-97.99 51.52,-124.46l-63.31 -180.91z"/>
   <path class="fil6" d="M7488.61 6565.62c11.24,-3.87 23.5,2.1 27.37,13.35 3.87,11.24 -2.1,23.5 -13.35,27.37l-223.97 77.57c-32.96,11.42 -32.96,11.42 -79.31,251.9l-243.48 1263.37c-2.23,11.7 -13.56,19.38 -25.26,17.15 -11.71,-2.24 -19.38,-13.57 -17.15,-25.27l243.48 -1263.37c51.04,-264.87 51.06,-264.9 107.69,-284.51l223.98 -77.56z"/>
   <path class="fil6" d="M8820.75 6040.66c1.95,-11.75 13.09,-19.7 24.84,-17.74 11.76,1.95 19.7,13.09 17.75,24.84l-0.09 0.48c-47.36,374.81 -94.71,749.45 -130.83,943.34 -18.75,100.83 -35.14,155.11 -62.49,186.92 -29.76,34.63 -67.22,40.93 -127.92,46.03 -50.8,4.25 -122.56,7.99 -195.63,11.79 -81.22,4.2 -164.14,8.53 -222.38,13.86 -51.47,4.71 -83.42,10 -101.28,26.53 -17.8,16.48 -25.84,48.02 -30.53,106.13 -7.75,96.14 -4.95,256.45 -2.71,386.49 0.73,42.15 1.42,81.2 1.68,114.31 0.55,70.67 -0.92,113.3 -25.91,156.77 -24.13,41.98 -68.98,80.98 -154.89,144.06 -65.25,47.93 -153.04,109.13 -250.59,177.13 -156.44,109.05 -338.02,235.65 -486.56,348.95 -120.76,92.11 -220.85,176.3 -302.44,248.89 -81.9,72.87 -144.57,133.48 -191.04,178.94 -93.15,91.09 -121.9,121.88 -150.52,152.56l-0.66 0.73c-8.44,8.44 -22.13,8.44 -30.58,0 -8.44,-8.44 -8.44,-22.14 0,-30.58l0.14 -0.14c28.78,-30.81 58.06,-62.12 151.52,-153.51 47.25,-46.21 110.81,-107.69 192.4,-180.29 81.9,-72.88 182.7,-157.64 304.99,-250.92 150.43,-114.74 331.8,-241.18 488.07,-350.12 98.18,-68.43 186.53,-130.03 249.75,-176.47 80.96,-59.45 122.66,-95.19 143.06,-130.69 19.53,-33.98 20.64,-71.77 20.16,-134.98 -0.25,-32.34 -0.94,-71.59 -1.68,-113.97 -2.27,-131.53 -5.11,-293.68 2.71,-390.53 5.62,-69.6 17.18,-109.17 44.41,-134.36 27.18,-25.17 65.84,-32.29 126.62,-37.86 60.53,-5.54 143.15,-9.84 224.06,-14.03 71.28,-3.71 141.29,-7.35 194.28,-11.79 49.5,-4.17 79.55,-8.72 98.69,-30.98 21.56,-25.08 35.6,-73.81 52.86,-166.63 35.92,-192.9 83.2,-566.85 130.47,-940.97l0.27 -2.19z"/>
   <path class="fil6" d="M7700.74 8258.47c-11.89,0.28 -21.78,-9.15 -22.06,-21.04 -0.28,-11.89 9.15,-21.78 21.04,-22.06l556.74 -13.1c11.89,-0.28 21.78,9.15 22.06,21.04 0.28,11.9 -9.15,21.78 -21.04,22.06l-556.74 13.1z"/>
   <path class="fil6" d="M3282.92 6526.13c-11.84,-1.44 -20.28,-12.24 -18.84,-24.08 1.44,-11.84 12.24,-20.28 24.08,-18.84 59.76,7.46 119.54,14.93 197.72,75.46 38,29.42 79.97,71.33 127.39,127.5 47.04,55.74 99.59,125.57 159.1,211.27 61.1,87.97 129.63,192.75 198.23,297.64 65.25,99.76 130.62,199.71 187.95,282.89 120.29,174.54 214.83,290.35 309.34,406.13 7.51,9.24 6.1,22.83 -3.13,30.34 -9.24,7.51 -22.83,6.1 -30.34,-3.13 -94.99,-116.36 -190.02,-232.78 -311.36,-408.84 -60.05,-87.12 -124.39,-185.51 -188.64,-283.73 -68.44,-104.66 -136.81,-209.17 -197.54,-296.62 -58.93,-84.87 -110.65,-153.64 -156.57,-208.05 -45.56,-53.97 -85.36,-93.83 -120.79,-121.27 -68.7,-53.19 -122.66,-59.94 -176.6,-66.67z"/>
   <path class="fil6" d="M4162.36 7488.96c0.69,11.89 -8.4,22.12 -20.29,22.81 -11.89,0.69 -22.12,-8.39 -22.81,-20.28 -3.94,-65.8 -7.9,-131.66 -8.55,-191.12 -0.65,-59.98 2.19,-112.25 11.98,-148.99l0.3 -1.01c4.61,-16.91 10.79,-30.86 18.18,-42.08 10.78,-16.41 24.1,-27 38.92,-32.52 15.03,-5.6 31,-5.85 46.96,-1.6 11.18,2.96 22.42,8.23 33.38,15.43 44.56,29.28 82.8,90.5 130.04,166.1l3.22 5.16c23.47,37.54 49.34,78.68 81.43,124.78 32.01,45.96 70.14,96.71 118.07,153.42 60.21,71.22 135.97,152.04 207.91,228.8 44.28,47.27 87.21,93.05 123.36,133.17 49.39,54.81 88.63,101.64 117.27,148.24 29.44,47.95 47.67,95.47 53.97,150.42 10.17,88.63 -11.34,194.79 -27.25,273.25 -3.13,15.5 -6.06,29.89 -8.56,43.43 -6.51,35.35 -8.75,58.23 -2.42,83.11 6.68,26.31 22.93,56.98 53.27,107.43 31.14,51.8 77.16,124.37 130.58,207.29 54.75,85 114.66,176.85 174.52,268.61 6.49,9.99 3.66,23.35 -6.33,29.84 -9.99,6.49 -23.35,3.65 -29.84,-6.34 -61.39,-94.1 -122.77,-188.18 -174.68,-268.79 -53.27,-82.67 -99.43,-155.49 -131.27,-208.46 -32.66,-54.31 -50.31,-87.96 -58.18,-118.92 -8.23,-32.37 -5.73,-59.9 1.94,-101.53 2.35,-12.8 5.43,-27.89 8.72,-44.13 15.3,-75.51 36.02,-177.69 26.58,-259.88 -5.52,-48.08 -21.69,-90.04 -47.89,-132.69 -27.03,-44 -64.81,-89.01 -112.55,-141.99 -37.23,-41.32 -79.27,-86.18 -122.67,-132.47 -72.47,-77.32 -148.8,-158.76 -209.44,-230.49 -49.15,-58.16 -88.06,-109.93 -120.6,-156.64 -32.42,-46.56 -58.73,-88.41 -82.63,-126.65l-3.22 -5.16c-44.52,-71.26 -80.58,-128.97 -117.01,-152.91 -6.91,-4.53 -13.95,-7.86 -20.8,-9.68 -7.53,-2.02 -14.66,-2.05 -20.83,0.24 -6.42,2.39 -12.55,7.51 -17.98,15.79 -4.86,7.38 -9.12,17.21 -12.5,29.69l-0.22 0.9c-8.74,32.75 -11.24,81.21 -10.63,137.5 0.62,56.77 4.6,122.87 8.55,188.92z"/>
   <path class="fil6" d="M3271 6488.7c8.82,-8.02 22.49,-7.38 30.51,1.43 8.02,8.82 7.38,22.49 -1.43,30.51 -22.68,20.58 -45.36,41.18 -47.48,76.03 -1.14,18.81 3.02,42.67 19.94,82.47 18.1,42.61 50.1,101.71 103.98,188.66 54.41,87.75 131.02,203.7 206.49,315.81 75.16,111.67 149.73,220.28 199.79,293.05l2.53 3.66c55.51,80.69 82.61,120.07 71.62,139.99 -14.49,26.29 -50.75,7.03 -120.94,-31.67 -57.92,-31.93 -146.88,-81.24 -245.74,-137.08 -95.16,-53.77 -193.3,-110.24 -266.28,-154.68 -27.97,-17.04 -53.06,-32.82 -75.03,-46.6 -80.19,-50.38 -113.41,-71.26 -124.13,-58.76 -11.93,13.92 -18.37,48.77 -15.13,92.6 2.86,38.73 13.81,83.22 35.85,125.57 24.54,47.18 63.03,92.08 111.38,138.08 49.47,47.06 109.27,95.35 175.05,148.33 124.88,100.57 271.28,218.1 418.86,336.55l26.7 21.44c9.27,7.46 10.76,21.05 3.29,30.33 -7.46,9.27 -21.05,10.75 -30.32,3.29l-26.7 -21.43c-147.58,-118.46 -293.98,-235.99 -418.86,-336.56 -66.6,-53.64 -127.15,-102.53 -177.76,-150.68 -51.71,-49.19 -93.1,-97.64 -120.02,-149.39 -24.91,-47.87 -37.31,-98.39 -40.57,-142.49 -4.07,-54.97 6.66,-101.78 25.45,-123.7 34.97,-40.77 77.44,-14.07 179.9,50.31 21.46,13.46 45.93,28.86 74.53,46.27 74.28,45.23 171.47,101.17 264.91,153.98 89.72,50.69 182.76,102.21 245.42,136.75 45.21,24.93 56.32,59.55 62.27,48.74 1.82,-3.3 -23.94,-28.85 -69.24,-94.69l-2.53 -3.66c-49.83,-72.43 -124.16,-180.71 -200.12,-293.56 -75.68,-112.42 -152.57,-228.79 -207.36,-317.16 -55.26,-89.16 -88.2,-150.12 -107.02,-194.38 -20.01,-47.06 -24.82,-77.03 -23.31,-101.92 3.2,-52.5 32.37,-78.98 61.5,-105.44z"/>
   <path class="fil6" d="M3170.37 7612.37c-2.33,-11.66 5.23,-23.03 16.9,-25.35 11.66,-2.33 23.03,5.23 25.36,16.9 4.45,22.2 9.38,45.78 15.13,71.94 5.21,23.81 10.47,46.48 15.69,67.45 9.9,39.68 20.34,76 36.33,111.62 15.88,35.37 37.54,70.78 70.15,109.32 33.15,39.16 77.78,81.71 128.11,125.97l1.14 1.07c49,43.01 105.81,89.48 162.58,135.93 9.23,7.57 10.6,21.2 3.04,30.43 -7.56,9.24 -21.19,10.6 -30.43,3.04 -55.62,-45.5 -111.3,-91.07 -163.63,-136.99l-1.26 -1.04c-51.61,-45.36 -97.66,-89.34 -132.51,-130.51 -35.35,-41.8 -59.03,-80.6 -76.56,-119.64 -17.4,-38.77 -28.49,-77.18 -38.89,-118.88 -5.62,-22.57 -10.96,-45.52 -16.02,-68.65 -4.56,-20.79 -9.7,-45.61 -15.13,-72.61z"/>
   <path class="fil6" d="M3289.6 7948.37c0.97,-11.9 11.44,-20.75 23.33,-19.78 11.89,0.97 20.75,11.44 19.78,23.33l-0.08 0.77c-5.47,71.56 -10.9,143.12 1.14,207.41 5.9,31.52 16.17,61.88 37.77,100.94 22.19,40.13 56.39,89.47 109.8,158.13 56.28,72.37 133.01,165.11 210.44,254.47 72,83.07 144.89,163.59 202.99,222.67 58.23,59.21 101.8,97.06 149.04,138.1 50.98,44.28 106.25,92.29 188.54,174.4 158.99,158.65 417.78,443.47 676.69,728.45l1.21 1.43c7.98,8.81 7.3,22.44 -1.52,30.41 -8.81,7.97 -22.44,7.3 -30.41,-1.52l-1.22 -1.25c-258.9,-284.96 -517.66,-569.75 -675.18,-726.93 -81.24,-81.07 -135.91,-128.55 -186.34,-172.37 -47.93,-41.62 -92.14,-80.03 -151.57,-140.47 -58.76,-59.74 -132.31,-140.99 -204.85,-224.69 -78.66,-90.76 -155.94,-184.13 -211.96,-256.15 -54.72,-70.35 -90.08,-121.49 -113.52,-163.89 -24.05,-43.48 -35.59,-77.78 -42.33,-113.78 -13.12,-70.18 -7.49,-144.47 -1.81,-218.71l0.06 -0.97z"/>
   <path class="fil6" d="M4200.49 7088.81c5.51,10.54 1.42,23.57 -9.12,29.07 -10.54,5.51 -23.57,1.42 -29.08,-9.12l-1.44 -2.76c-171.4,-327.97 -342.6,-655.54 -441.36,-827.27 -47.71,-82.95 -77.65,-128.21 -116.37,-150.82 -38.46,-22.44 -90.03,-24.91 -181.16,-22.44 -101.61,2.73 -251.5,11.83 -396.76,24.63 -123.25,10.86 -242.36,24.4 -324.18,38.96 -80.83,14.4 -121.69,28.35 -130.16,55.47 -9.43,30.14 12.31,83.16 57.13,173.45 41.57,83.73 102.65,197.89 174.59,328.95 71.81,130.85 154.58,278.76 239.58,430.15 5.83,10.4 2.12,23.58 -8.28,29.4 -10.39,5.83 -23.58,2.12 -29.4,-8.27 -84.91,-151.25 -167.67,-299.12 -239.77,-430.48 -71.96,-131.13 -133.29,-245.74 -175.43,-330.64 -49.85,-100.43 -73.42,-161.4 -59.66,-205.42 14.71,-47.07 65.59,-67.67 163.96,-85.2 83.28,-14.83 203.66,-28.53 327.89,-39.47 144.5,-12.74 295.52,-21.84 399.47,-24.63 99.42,-2.69 156.58,0.53 203.97,28.19 47.11,27.52 80.3,76.94 131.93,166.71 99.38,172.77 270.7,500.58 442.21,828.78l1.44 2.76z"/>
   <path class="fil6" d="M6938.95 5982.9c11.75,-2 22.93,5.91 24.92,17.66 1.99,11.76 -5.91,22.93 -17.67,24.93l-2.05 0.28c-331,52.1 -661.98,104.3 -935.35,197.36 -135.83,46.23 -257.49,102.63 -369.72,179.7 -112.1,76.98 -215.11,174.82 -313.91,304.06 -199.13,260.47 -381.63,648.68 -564.08,1036.92 -4.68,11.06 -17.38,16.17 -28.34,11.51 -10.96,-4.66 -16.07,-17.36 -11.41,-28.32l0.39 -0.76c183.63,-390.75 367.32,-781.55 569.13,-1045.54 101.73,-133.08 208.04,-233.99 323.87,-313.53 115.71,-79.45 240.77,-137.48 380.22,-184.94 276.3,-94.05 609.37,-146.59 942.48,-199.04l1.52 -0.29z"/>
   <path class="fil6" d="M6590.14 6188.74c7.79,-9 21.42,-9.99 30.43,-2.19 9,7.79 9.99,21.42 2.2,30.43 -155.98,179.62 -312,359.27 -392.16,470.07 -38.63,53.41 -58.95,89.73 -66.51,118.41 -6.79,25.7 -2.75,45.92 7.19,68.8l0.45 1.11c11.47,26.08 30.64,56.36 48.92,85.25 18.18,28.73 35.58,56.21 45.49,79.76 11.96,28.41 13.24,50.64 2.58,74.91 -9.37,21.36 -27.99,42.44 -57.16,70.96l-0.45 0.43c-13.35,13.04 -28.31,27.14 -44.29,42.19 -51.47,48.5 -113.79,107.22 -147.02,153.54 -39.09,54.53 -36.09,94.76 -25.51,235.95l1.05 14.04c6.71,90.17 15.84,219.09 24.73,361.6 6.49,104.19 12.84,215.26 17.92,322.59 11.8,249 16.57,474.27 21.3,699.43l0.02 1.42c0.18,11.89 -9.32,21.7 -21.22,21.88 -11.89,0.18 -21.7,-9.32 -21.88,-21.22l-0.03 -1.11c-4.71,-224.23 -9.45,-448.45 -21.29,-698.38 -5.02,-105.77 -11.37,-216.91 -17.92,-322.08 -8.69,-139.24 -17.88,-268.93 -24.74,-360.91l-1.04 -14.04c-11.49,-153.39 -14.76,-197.11 33.45,-264.36 35.41,-49.38 99.59,-109.84 152.59,-159.78 16.23,-15.27 31.4,-29.57 43.74,-41.64l0.49 -0.49c25.32,-24.74 41.11,-42.22 47.71,-57.26 5.33,-12.14 4.22,-24.34 -2.76,-40.93 -8.44,-20.05 -24.98,-46.18 -42.27,-73.51 -18.97,-29.99 -38.88,-61.43 -51.87,-90.97l-0.54 -1.13c-13.73,-31.58 -19.18,-59.94 -9.39,-97.04 8.99,-34.09 31.39,-74.83 73.29,-132.76 80.94,-111.89 237.73,-292.44 394.5,-472.97z"/>
   <path class="fil6" d="M4884.92 11199.21c11.96,0 21.65,9.7 21.65,21.64 0,11.08 -8.32,20.21 -19.05,21.49 -164.36,31.96 -328.65,63.68 -469.54,13.35 -71.96,-25.69 -136.86,-72.35 -196.3,-157.78 -57.84,-83.14 -110.59,-203.58 -159.86,-378.43 -97.53,-346.07 -182.21,-907.25 -224.59,-1188.24l-0.07 -0.48c-45.08,-298.92 -45.07,-298.94 26.86,-320.65l269.75 -81.43c11.43,-3.4 23.48,3.11 26.88,14.54 3.39,11.43 -3.11,23.48 -14.54,26.88l-269.75 81.42c-35.91,10.85 -35.93,10.87 3.5,272.42l0.09 0.53c42.25,280.16 126.75,840.27 223.44,1183.36 47.85,169.82 98.56,286.02 153.78,365.4 53.63,77.09 111.51,118.94 175.34,141.73 129.84,46.37 288.29,15.79 446.8,-15.02 1.78,-0.47 3.66,-0.73 5.61,-0.73z"/>
   <path class="fil6" d="M3944.28 9201.65c6.72,9.84 4.18,23.29 -5.65,30.01 -9.84,6.72 -23.29,4.17 -30.01,-5.66 -28.86,-42.06 -57.76,-84.16 -84.91,-127.2 -27.02,-42.83 -51.88,-86.03 -72.36,-129.85 -40.94,-87.67 -63.23,-175.19 -85.49,-262.65 -0.47,-1.87 -0.69,-3.74 -0.66,-5.59 0.01,-9.44 6.27,-18.12 15.81,-20.75 9.53,-2.63 19.35,1.58 24.21,9.64 1.14,1.82 2.01,3.85 2.57,6.05 21.86,85.91 43.75,171.88 82.6,255.06 19.47,41.67 43.52,83.4 69.83,125.1 26.17,41.49 55.13,83.68 84.06,125.84z"/>
   <path class="fil6" d="M8964.01 3474.39c0.6,-11.89 10.76,-21.05 22.65,-20.45 11.9,0.6 21.05,10.76 20.45,22.65 -6.36,121.87 -13.07,237.03 -20.19,342.37 -7.13,105.45 -14.86,202.99 -23.3,290.01 -17.8,183.46 -38.61,315.03 -64.59,419.1 -26.21,104.98 -57.79,182.49 -96.9,257.1 -39.21,74.82 -86.1,146.68 -138.92,212.76 -52.14,65.24 -109.91,124.72 -171.64,175.77 -63.89,52.83 -132.21,96.93 -204.9,130.81 -69.98,32.61 -144.22,55.82 -222.69,68.3 -79.96,12.71 -164.07,14.21 -248,4.79 -83.46,-9.35 -166.97,-29.55 -246.38,-60.22 -79.62,-30.75 -154.97,-72.02 -225.8,-124.22 -70.71,-52.08 -137.1,-115.17 -198.99,-189.69 -61.89,-74.5 -119.26,-160.34 -171.23,-275.81 -51.71,-114.88 -98.19,-259.27 -138.6,-451.3 -22.53,-107.02 -43.18,-228.72 -62.46,-360.93 -19.26,-132.12 -37.2,-274.96 -54.3,-424.26 -1.36,-11.85 7.16,-22.56 19,-23.92 11.85,-1.35 22.56,7.17 23.92,19.01 17.07,148.95 34.95,291.4 54.15,423.09 19.19,131.63 39.69,252.45 61.94,358.22 39.71,188.62 85.2,330.08 135.72,442.33 50.27,111.69 105.5,194.42 165,266.03 59.47,71.62 123.35,132.3 191.37,182.41 67.88,50.03 139.92,89.51 215.84,118.83 75.75,29.26 155.63,48.55 235.55,57.51 80.3,9 160.51,7.63 236.5,-4.46 74.1,-11.78 144.54,-33.85 211.22,-64.93 69.38,-32.33 134.59,-74.44 195.6,-124.89 59.84,-49.47 115.56,-106.79 165.56,-169.35 51.01,-63.81 96.34,-133.32 134.35,-205.83 37.47,-71.5 67.81,-146.08 93.16,-247.62 25.58,-102.44 46.07,-231.99 63.59,-412.7 8.23,-84.72 15.91,-182.01 23.13,-288.8 7.24,-106.93 13.92,-221.65 20.19,-341.71z"/>
   <path class="fil6" d="M9000.09 3491.46c-8.82,8.02 -22.49,7.38 -30.51,-1.43 -8.02,-8.82 -7.38,-22.48 1.43,-30.51 29.27,-26.62 58.57,-53.29 89.14,-76.62 31.29,-23.87 63.59,-43.98 97.87,-56.46 34.62,-12.61 70.8,-17.31 105.36,-14.72 35.46,2.67 69.46,13.02 98.6,30.42 29.45,17.58 53.78,42.27 71.78,73.39 17.19,29.75 28.61,65.38 33.16,106.27 4.36,39.32 2.41,83.44 -4.89,131.28 -7.59,49.59 -21.12,103.78 -39.44,161.22 -18.36,57.53 -41.58,118.21 -67.09,174.18 -23.82,52.24 -49.78,100.7 -75.88,139.07 -27.62,40.61 -55.38,69.98 -81.95,92.06 -26.93,22.36 -52.27,37.13 -75.04,48.5 -22.88,11.43 -43.63,19.71 -62.85,24.8 -20.07,5.31 -38.47,7.11 -55.82,5.4 -17.5,-1.71 -33.29,-6.92 -48.16,-13.84 -13.76,-6.36 -26.85,-14.35 -39.91,-22.31 -10.17,-6.21 -13.39,-19.5 -7.18,-29.67 6.21,-10.16 19.49,-13.38 29.66,-7.17 11.68,7.11 23.38,14.25 35.59,19.94 11.02,5.15 22.36,8.96 34.21,10.13 12.08,1.19 25.48,-0.22 40.63,-4.23 16.02,-4.24 34.07,-11.51 54.57,-21.76 20.62,-10.29 43.34,-23.48 66.76,-42.93 23.79,-19.75 48.76,-46.23 73.82,-83.09 24.63,-36.21 49.41,-82.53 72.33,-132.81 24.86,-54.52 47.43,-113.49 65.23,-169.28 17.47,-54.79 30.43,-106.76 37.75,-154.62 6.78,-44.42 8.65,-84.85 4.74,-120.14 -3.87,-34.8 -13.37,-64.75 -27.6,-89.36 -14.28,-24.7 -33.45,-44.21 -56.57,-58.01 -23.23,-13.86 -50.72,-22.17 -79.67,-24.34 -28.71,-2.14 -58.75,1.74 -87.43,12.19 -29.58,10.77 -58.23,28.72 -86.39,50.2 -28.86,22.03 -57.57,48.16 -86.25,74.25z"/>
   <path class="fil6" d="M9329.17 3470.78c11.8,1.53 20.13,12.36 18.6,24.17 -1.53,11.8 -12.36,20.13 -24.17,18.6 -14.61,-1.95 -29.29,-3.9 -43.8,-3.85 -13.9,0.06 -28.6,1.96 -44.81,7.5 -17.57,6 -37,16.39 -56.23,31.5 -17.28,13.57 -34.26,30.8 -49.39,51.87 -33.51,46.6 -59.52,113.59 -85.52,180.54l-0.48 1.15c-4.6,10.28 -16.48,15.35 -27.19,11.37 -10.7,-3.99 -16.35,-15.59 -13.12,-26.37l0.58 -1.71c26.98,-69.51 53.97,-139.03 90.75,-190.18 17.78,-24.74 37.58,-44.88 57.68,-60.65 23.18,-18.21 47.11,-30.91 69.07,-38.42 20.96,-7.17 40.19,-9.62 58.48,-9.7 17.68,-0.06 33.63,2.07 49.55,4.18z"/>
   <path class="fil6" d="M9105.71 3608.68c-11.44,-3.4 -17.94,-15.45 -14.54,-26.88 3.4,-11.43 15.44,-17.93 26.88,-14.54l2.39 0.85c43.35,14.39 86.53,28.92 114.16,51.78 30.07,24.88 39.21,55.62 48.29,86.32 3.35,11.43 -3.19,23.44 -14.63,26.79 -11.43,3.35 -23.44,-3.19 -26.79,-14.63 -7.19,-24.31 -14.42,-48.64 -34.41,-65.19 -21.74,-17.98 -60.87,-31.14 -100.23,-44.2l-1.12 -0.3z"/>
   <path class="fil6" d="M6754.29 3472.92c8.73,8.06 9.25,21.69 1.19,30.42 -8.06,8.72 -21.69,9.25 -30.42,1.19 -20.95,-19.42 -41.95,-38.88 -64.33,-56.63 -21,-16.66 -42.59,-31.15 -65.24,-41.17 -22.35,-9.9 -46.02,-15.65 -69.85,-17.01 -23.7,-1.34 -47.67,1.56 -70.72,8.89 -23.7,7.54 -46.7,19.86 -67.3,36.27 -19.77,15.76 -37.22,35.32 -50.77,58 -13.86,23.18 -23.76,49.87 -28.87,80.45 -5.22,31.21 -5.46,66.57 0.09,106.5 5.58,40.19 17.09,85.19 33.09,131.61 16.52,47.89 37.66,96.81 61.88,143.25 24.24,46.47 51.68,90.76 79.95,129.48 27.72,37.95 56.27,70.58 83.43,94.65 26.31,23.34 51.32,38.51 75.26,47.97 23.64,9.35 46.29,13.18 68.22,13.89 22.62,0.76 44.77,-1.67 66.67,-5.71 22.42,-4.11 45,-10.02 67.54,-15.91 11.52,-2.98 23.3,3.94 26.28,15.47 2.97,11.52 -3.95,23.3 -15.47,26.27 -23.21,6.07 -46.49,12.15 -70.58,16.59 -24.63,4.53 -49.76,7.26 -75.79,6.4 -26.73,-0.89 -54.24,-5.51 -82.76,-16.79 -28.18,-11.14 -57.42,-28.82 -87.94,-55.89 -29.4,-26.06 -60.09,-61.06 -89.69,-101.59 -29.54,-40.49 -58.13,-86.6 -83.31,-134.88 -25.51,-48.9 -47.57,-99.86 -64.59,-149.18 -16.81,-48.73 -28.96,-96.46 -34.96,-139.7 -6.17,-44.41 -5.83,-84.11 0.09,-119.53 6.01,-36.05 17.83,-67.72 34.44,-95.5 16.31,-27.3 37.23,-50.77 60.92,-69.65 24.56,-19.58 52.31,-34.36 81.17,-43.55 28.22,-8.98 57.38,-12.54 86.1,-10.91 29.14,1.65 57.89,8.6 84.87,20.56 26.44,11.71 51.07,28.15 74.72,46.92 22.24,17.64 44.48,38.26 66.68,58.82z"/>
   <path class="fil6" d="M6707.96 3794.42c3.73,11.29 -2.4,23.48 -13.7,27.21 -11.29,3.73 -23.47,-2.4 -27.21,-13.7l-0.11 -0.34c-22.97,-69.81 -45.86,-139.56 -77.8,-183.61 -13.68,-18.88 -29.26,-33.31 -45.18,-44.18 -19.63,-13.42 -39.74,-21.57 -57.51,-26.14 -32.21,-8.3 -58.42,-5.03 -84.63,-1.77l-2.62 0.16c-11.96,0.02 -21.65,-9.67 -21.65,-21.62 0,-11.37 8.78,-20.7 19.92,-21.57 29.73,-3.71 59.58,-7.28 99.63,3.05 22.22,5.72 47.14,15.78 71.21,32.22 19.72,13.48 38.99,31.28 55.81,54.51 35.91,49.52 59.87,122.52 83.81,195.51l0.03 0.27z"/>
   <path class="fil6" d="M6614.02 3612.79c11.33,-3.74 23.51,2.39 27.24,13.68 3.61,10.93 -2,22.68 -12.58,26.82 -24.67,9.78 -49.39,19.61 -70.8,33.2 -10.63,6.74 -20.52,14.45 -30.02,22.57 -9.78,8.38 -19.66,17.69 -29.49,26.97 -8.68,8.16 -22.35,7.75 -30.51,-0.92 -8.16,-8.68 -7.75,-22.35 0.92,-30.51 10.07,-9.49 20.19,-19.03 31.03,-28.32 11.17,-9.55 22.71,-18.55 34.93,-26.3 24.22,-15.38 51.16,-26.09 78.05,-36.75l1.23 -0.44z"/>
   <path class="fil6" d="M8593.09 5022.57c0.04,-11.89 9.75,-21.5 21.64,-21.46 11.9,0.04 21.5,9.75 21.46,21.64l-2.08 303.96c-0.04,11.89 -9.75,21.5 -21.64,21.46 -11.89,-0.04 -21.5,-9.75 -21.46,-21.64l2.08 -303.96z"/>
   <path class="fil6" d="M7139.83 4989.87c-0.09,-11.89 9.49,-21.63 21.38,-21.72 11.89,-0.09 21.63,9.49 21.72,21.39l5.09 647.43c0.09,11.9 -9.49,21.63 -21.38,21.72 -11.89,0.09 -21.63,-9.49 -21.72,-21.38l-5.09 -647.44z"/>
   <path class="fil6" d="M8596.39 5049.73c6.61,-9.94 20.05,-12.62 29.99,-6 9.94,6.61 12.62,20.05 6.01,29.99l-1.18 1.64c-104.62,148.87 -209.31,297.66 -343.8,401.01 -66.34,51 -139.62,90.64 -215.67,119 -79.59,29.69 -162.22,47.06 -243.07,52.19 -73.23,4.65 -145,-0.66 -211.97,-12.4 -77.57,-13.62 -149.12,-35.97 -209.38,-61.51 -112.07,-47.47 -184.03,-105.37 -255.89,-163.24l-0.15 -0.05c-9.41,-7.32 -11.11,-20.93 -3.79,-30.34 7.32,-9.42 20.93,-11.12 30.34,-3.8l0.36 0.35c69.67,56.1 139.39,112.25 245.87,157.35 57.25,24.26 125.6,45.58 200.07,58.65 63.99,11.22 132.33,16.3 201.83,11.89 76.86,-4.89 155.31,-21.35 230.73,-49.48 72.07,-26.88 141.53,-64.45 204.35,-112.74 129.22,-99.31 232.05,-245.47 334.85,-391.74l0.5 -0.77z"/>
   <path class="fil1" d="M7685.19 3148.94c-31.08,-11.73 -103.47,-20.92 -167.69,-23.98 -64.23,-3.04 -120.28,0.02 -186.04,21.92 -65.75,21.92 -141.19,62.71 -189.1,94.31 -47.92,31.61 -68.3,54.01 -69.82,68.79 -1.54,14.8 15.79,21.94 87.66,7.66 71.86,-14.27 198.27,-49.95 296.65,-74.94 98.38,-24.97 168.71,-39.23 208.98,-53.51 40.28,-14.27 50.46,-28.53 19.36,-40.25z"/>
   <path class="fil1" d="M7345.74 3387.97c-65.02,0 -117.74,52.72 -117.74,117.75 0,65.02 52.72,117.74 117.74,117.74 65.02,0 117.73,-52.72 117.73,-117.74 0,-65.03 -52.71,-117.75 -117.73,-117.75z"/>
   <path class="fil6" d="M8401.64 4330.88c11.29,-3.78 23.52,2.32 27.3,13.61 3.78,11.29 -2.31,23.52 -13.6,27.3 -39.87,13.3 -79.79,26.61 -122.15,38.87 -42.34,12.26 -86.88,23.39 -135.75,32.22 -51.53,9.32 -107.61,16.04 -167.39,18.62 -53.54,2.3 -110.3,1.29 -169.68,-4.08 -124.89,-11.36 -260.1,-42.1 -395.26,-72.81 -11.62,-2.6 -18.92,-14.15 -16.32,-25.76 2.61,-11.61 14.16,-18.92 25.77,-16.32 133.93,30.43 267.91,60.9 389.7,71.96 57.15,5.19 112.02,6.15 163.92,3.91 57.98,-2.49 112.11,-8.98 161.65,-17.93 46.96,-8.49 90.12,-19.28 131.35,-31.22 41.18,-11.92 80.85,-25.16 120.46,-38.37z"/>
   <path class="fil6" d="M8044.9 4596.02c11.8,-1.5 22.6,6.87 24.09,18.68 1.5,11.8 -6.87,22.59 -18.67,24.09 -48.46,6.18 -96.94,12.38 -139.31,13.41 -21.83,0.55 -41.45,-0.23 -59.91,-1.65 -18.4,-1.4 -36.04,-3.5 -53.67,-5.57 -11.84,-1.35 -20.36,-12.07 -19.01,-23.91 1.36,-11.84 12.08,-20.36 23.92,-19.01 17.01,2.01 34.07,4.03 51.98,5.39 17.83,1.38 36.24,2.14 55.67,1.65 40.15,-0.97 87.55,-7.04 134.91,-13.08z"/>
   <path class="fil1" d="M8121.1 3148.94c31.08,-11.73 103.47,-20.92 167.69,-23.98 64.23,-3.04 120.29,0.02 186.05,21.92 65.75,21.92 141.18,62.71 189.1,94.31 47.92,31.61 68.29,54.01 69.81,68.79 1.55,14.8 -15.77,21.94 -87.66,7.66 -71.85,-14.27 -198.26,-49.95 -296.65,-74.94 -98.37,-24.97 -168.71,-39.23 -208.97,-53.51 -40.28,-14.27 -50.46,-28.53 -19.37,-40.25z"/>
   <path class="fil1" d="M8460.56 3387.97c65.02,0 117.74,52.72 117.74,117.75 0,65.02 -52.72,117.74 -117.74,117.74 -65.03,0 -117.73,-52.72 -117.73,-117.74 0,-65.03 52.7,-117.75 117.73,-117.75z"/>
   <path class="fil6" d="M6777.63 3655.02c-5.31,10.68 -18.31,15.04 -28.98,9.72 -10.68,-5.31 -15.04,-18.3 -9.73,-28.98 27.09,-54.23 54.19,-108.51 78.25,-171.27 24.03,-62.68 45.33,-134.45 61.07,-224.29 31.82,-181.62 41.25,-436.4 45.97,-563.93l0.06 -1.52c5.72,-155.32 6.16,-155.19 149.82,-108.57 58.52,18.99 146.37,47.52 249.75,74.14 104.03,26.8 225.28,52.23 351.88,65.47 115.61,12.08 235.78,13.99 350.26,9.32 135.98,-5.54 264.27,-20.47 367.57,-38.72 94.75,-16.72 167.99,-36.16 223.98,-54.18 55.77,-17.95 94.99,-34.7 121.09,-45.84 85.54,-36.51 85.55,-36.51 76.6,80.07 -3.13,40.83 -7.87,102.12 -10.03,169.26 -2.2,68.08 -1.98,143.91 4.6,215.05 6.55,70.85 19.5,137.5 35.22,197.63 15.62,59.75 34.21,113.44 52.01,158.55 17.67,44.72 34.56,80.8 51.02,112.46 17.21,33.1 33.08,60.04 48.91,86.96 6.01,10.26 2.56,23.47 -7.69,29.48 -10.26,6.02 -23.47,2.57 -29.49,-7.69 -16.89,-28.69 -33.79,-57.42 -50.1,-88.79 -17.07,-32.81 -34.56,-70.16 -52.86,-116.53 -18.15,-45.98 -37.23,-101.2 -53.55,-163.63 -16.21,-62.02 -29.6,-130.96 -36.4,-204.56 -6.77,-73.28 -7.01,-150.84 -4.77,-220.28 2.27,-70.38 6.93,-130.84 10.02,-171.13 3.5,-45.69 3.49,-45.68 -16.58,-37.12 -26.68,11.39 -66.77,28.51 -124.82,47.19 -57.87,18.62 -133.16,38.65 -229.72,55.7 -104.52,18.45 -234.73,33.57 -373.32,39.23 -116.4,4.75 -238.64,2.79 -356.35,-9.51 -128.8,-13.45 -252.21,-39.36 -358.13,-66.64 -106.59,-27.46 -194.13,-55.88 -252.46,-74.81 -89.35,-28.99 -89.74,-29.1 -93.36,69.11l-0.06 2.18c-4.79,129.04 -14.35,385.7 -46.48,569.08 -16.27,92.91 -38.35,167.23 -63.27,232.24 -24.88,64.94 -52.41,120.07 -79.93,175.15z"/>
   <path class="fil6" d="M9091.04 3406.3c-1.95,11.76 -13.09,19.7 -24.84,17.75 -11.76,-1.96 -19.7,-13.1 -17.75,-24.85l0.1 -0.61c35.3,-206.77 70.63,-413.49 75.34,-577.72 2.32,-81.64 -2.85,-153.02 -14.36,-216.98 -11.45,-63.56 -29.26,-120.06 -52.2,-172.31 -23.61,-53.66 -52.58,-102.65 -86.98,-144.32 -31.92,-38.67 -68.75,-71.27 -110.54,-95.7 -40.19,-23.48 -86.07,-39.9 -144.9,-60.96 -70.24,-25.12 -158.62,-56.77 -279.29,-115.17 -61.99,-30 -132.34,-67.04 -207.42,-106.54 -193.14,-101.66 -417.85,-219.95 -608.79,-275.46 -130.85,-38.03 -246.21,-46.7 -349.95,-33.5 -103.41,13.15 -195.73,48.17 -280.67,97.52 -87.25,50.7 -166.59,116.41 -232.91,195.09 -63.31,75.1 -114.91,162.16 -150.31,259.41 -36.38,99.91 -55.77,210.96 -64.87,323.23 -9.17,113.22 -7.89,227.38 -3.01,332.7 9.76,210.91 34.05,387.63 58.35,564.25 2.21,11.23 -4.75,22.35 -15.97,25.14 -11.57,2.89 -23.31,-4.15 -26.2,-15.72l-0.43 -2.42c-24.47,-177.86 -48.95,-355.74 -58.85,-569.38 -4.97,-107.19 -6.28,-223.22 3.01,-337.94 9.36,-115.67 29.5,-230.5 67.4,-334.58 37.13,-102.01 91.35,-193.44 157.92,-272.41 69.71,-82.69 152.91,-151.66 244.23,-204.73 89.55,-52.03 187.18,-88.97 296.9,-102.93 109.37,-13.91 230.52,-4.92 367.36,34.86 195.35,56.79 422.07,176.12 616.9,278.67 74.65,39.29 144.61,76.11 206.06,105.85 118.07,57.14 205.55,88.47 275.08,113.34 60.99,21.83 108.54,38.85 152.15,64.33 46.12,26.96 86.78,62.95 122.04,105.66 37.15,44.99 68.18,97.34 93.21,154.33 24.19,55.12 42.98,114.79 55.09,182.07 12.03,66.89 17.46,141.19 15.05,225.78 -4.82,167.93 -40.35,375.83 -75.85,583.72l-0.1 0.53z"/>
   <path class="fil6" d="M7337.86 3297.73c-88.82,0 -169.24,36 -227.42,94.19 -58.18,58.17 -94.18,138.59 -94.18,227.41 0,88.82 36,169.24 94.18,227.43 58.18,58.17 138.6,94.17 227.42,94.17 88.82,0 169.23,-36 227.42,-94.17 58.18,-58.19 94.17,-138.61 94.17,-227.43 0,-88.82 -35.99,-169.24 -94.17,-227.41 -58.19,-58.19 -138.6,-94.19 -227.42,-94.19zm-258 63.61c66.02,-66.03 157.27,-106.89 258,-106.89 100.72,0 191.97,40.86 258,106.89 66.02,66.02 106.87,157.27 106.87,257.99 0,100.73 -40.85,191.98 -106.87,258.01 -66.03,66.02 -157.28,106.87 -258,106.87 -100.73,0 -191.98,-40.85 -258,-106.87 -66.03,-66.03 -106.88,-157.28 -106.88,-258.01 0,-100.72 40.85,-191.97 106.88,-257.99z"/>
   <path class="fil6" d="M8462.78 3297.73c-88.82,0 -169.24,36 -227.41,94.19 -58.19,58.17 -94.19,138.59 -94.19,227.41 0,88.82 36,169.24 94.19,227.43 58.17,58.17 138.59,94.17 227.41,94.17 88.82,0 169.24,-36 227.42,-94.17 58.18,-58.19 94.18,-138.61 94.18,-227.43 0,-88.82 -36,-169.24 -94.18,-227.41 -58.18,-58.19 -138.6,-94.19 -227.42,-94.19zm-257.99 63.61c66.01,-66.03 157.26,-106.89 257.99,-106.89 100.73,0 191.97,40.86 258.01,106.89 66.01,66.02 106.87,157.27 106.87,257.99 0,100.73 -40.86,191.98 -106.87,258.01 -66.04,66.02 -157.28,106.87 -258.01,106.87 -100.73,0 -191.98,-40.85 -257.99,-106.87 -66.04,-66.03 -106.89,-157.28 -106.89,-258.01 0,-100.72 40.85,-191.97 106.89,-257.99z"/>
   <path class="fil6" d="M8131.37 3507.99c11.94,0 21.64,9.69 21.64,21.64 0,11.94 -9.7,21.64 -21.64,21.64l-459.81 0c-11.94,0 -21.64,-9.7 -21.64,-21.64 0,-11.95 9.7,-21.64 21.64,-21.64l459.81 0z"/>
   <path class="fil6" d="M8812.46 3589.62c-10.59,5.45 -23.62,1.29 -29.08,-9.3 -5.45,-10.59 -1.29,-23.62 9.3,-29.08l182.98 -94.94c10.59,-5.45 23.62,-1.29 29.08,9.3 5.45,10.59 1.29,23.62 -9.3,29.08l-182.98 94.94z"/>
   <path class="fil6" d="M7004.25 3555.6c11.29,3.82 17.35,16.08 13.53,27.38 -3.82,11.29 -16.08,17.34 -27.38,13.52l-257.65 -87.32c-11.29,-3.82 -17.34,-16.09 -13.52,-27.38 3.82,-11.29 16.08,-17.35 27.37,-13.53l257.65 87.33z"/>
   <path class="fil6" d="M7762.05 3717.44c0.55,-11.89 10.66,-21.09 22.56,-20.54 11.89,0.55 21.09,10.67 20.54,22.56l-0.03 0.52c-8.71,169.74 -17.42,339.33 -9.26,432.29 3.76,42.62 10.63,66.97 20.58,79.65 7.32,9.36 18.4,11.75 32.51,11.42l0.16 0c18.59,-0.45 41.64,-5.27 66.87,-12.28 25.68,-7.12 54.44,-16.88 83.17,-26.62 11.3,-3.82 23.56,2.24 27.38,13.53 3.82,11.29 -2.24,23.56 -13.53,27.38 -28.8,9.76 -57.68,19.55 -85.52,27.28 -28.15,7.81 -54.52,13.24 -77.26,13.8l-0.25 0.01c-27.32,0.65 -49.73,-5.26 -67.51,-27.97 -15.16,-19.34 -25.17,-50.94 -29.7,-102.47 -8.35,-95.14 0.46,-266.62 9.26,-438.13l0.03 -0.43z"/>
  </g>
 </g>
</svg>
