<?xml version="1.0" encoding="UTF-8"?>
<svg xmlns="http://www.w3.org/2000/svg" version="1.1" viewBox="0 0 508.11 343.03">
  <defs>
    <style>
      .cls-1 {
        fill: #003761;
      }
    </style>
  </defs>
  <!-- Generator: Adobe Illustrator 28.7.4, SVG Export Plug-In . SVG Version: 1.2.0 Build 166)  -->
  <g>
    <g id="Layer_1">
      <g>
        <path class="cls-1" d="M194.76,105.69c.87,1.45,1.66,3.33,2.39,5.65.72,2.32,1.09,4.85,1.09,7.6,0,4.78-1.06,8.33-3.15,10.65-2.1,2.32-5.03,3.48-8.8,3.48h-48.23v28.46h49.32c.87,1.59,1.7,3.48,2.5,5.65.79,2.17,1.19,4.71,1.19,7.6,0,4.78-1.09,8.3-3.26,10.54-2.17,2.25-5.08,3.37-8.69,3.37h-40.63v48.44c-1.59.44-3.84.84-6.73,1.2-2.9.36-5.94.54-9.12.54-6.81,0-11.55-1.16-14.23-3.48-2.68-2.31-4.02-6.51-4.02-12.6v-99.07c0-5.5,1.63-9.88,4.89-13.14,3.26-3.26,7.64-4.89,13.14-4.89h72.34Z"/>
        <path class="cls-1" d="M213.12,232.89c-3.26-3.26-4.89-7.64-4.89-13.15v-114.49c1.59-.29,3.87-.66,6.84-1.09,2.96-.43,5.9-.65,8.8-.65,6.52,0,11.22,1.08,14.12,3.26,2.9,2.17,4.35,6.45,4.35,12.82v90.59h52.14c.87,1.45,1.7,3.34,2.5,5.65.79,2.32,1.19,4.85,1.19,7.6,0,4.78-1.06,8.36-3.15,10.75-2.1,2.38-4.96,3.58-8.58,3.58h-60.18c-5.5,0-9.88-1.64-13.14-4.89"/>
        <path class="cls-1" d="M403.75,123.93c0,3.34-.87,6.27-2.61,8.8-1.74,2.54-3.77,4.53-6.08,5.97-3.77-2.46-7.86-4.63-12.27-6.52-4.42-1.88-9.67-2.82-15.75-2.82-11.59,0-20.64,3.66-27.16,10.97-6.52,7.32-9.78,17.71-9.78,31.18s3.44,24.37,10.32,31.39c6.88,7.03,16.33,10.54,28.35,10.54,6.23,0,11.55-.83,15.97-2.5,4.42-1.66,8.51-3.65,12.27-5.97,2.17,1.73,3.95,3.94,5.32,6.62,1.38,2.69,2.06,5.69,2.06,9.02,0,2.9-.76,5.61-2.28,8.14s-4.16,4.68-7.93,6.41c-2.9,1.45-6.81,2.79-11.73,4.02-4.92,1.23-11.01,1.84-18.25,1.84-9.7,0-18.76-1.38-27.16-4.12-8.4-2.75-15.71-6.96-21.94-12.61-6.23-5.65-11.12-12.85-14.66-21.62-3.55-8.76-5.32-19.15-5.32-31.18,0-11.29,1.77-21.28,5.32-29.98,3.55-8.68,8.36-15.96,14.45-21.83,6.08-5.87,13.18-10.32,21.29-13.36,8.11-3.04,16.8-4.56,26.07-4.56,13.18,0,23.39,2.11,30.63,6.3,7.24,4.2,10.86,9.49,10.86,15.86"/>
      </g>
    </g>
  </g>
</svg>