<?xml version="1.0" encoding="UTF-8" standalone="no"?>
<!-- Created with Inkscape (http://www.inkscape.org/) -->

<svg
   version="1.1"
   id="svg1"
   width="880"
   height="880"
   viewBox="0 0 880 880"
   sodipodi:docname="wooden-boat-river-publicdomainvectors.org.svg"
   inkscape:version="1.3.2 (091e20e, 2023-11-25, custom)"
   xmlns:inkscape="http://www.inkscape.org/namespaces/inkscape"
   xmlns:sodipodi="http://sodipodi.sourceforge.net/DTD/sodipodi-0.dtd"
   xmlns="http://www.w3.org/2000/svg"
   xmlns:svg="http://www.w3.org/2000/svg">
  <defs
     id="defs1">
    <clipPath
       clipPathUnits="userSpaceOnUse"
       id="clipPath4">
      <path
         d="M 0,660 H 660 V 0 H 0 Z"
         transform="translate(-216.56301,-490.75831)"
         id="path4" />
    </clipPath>
    <clipPath
       clipPathUnits="userSpaceOnUse"
       id="clipPath6">
      <path
         d="M 0,660 H 660 V 0 H 0 Z"
         transform="translate(-553.86721,-366.21091)"
         id="path6" />
    </clipPath>
    <clipPath
       clipPathUnits="userSpaceOnUse"
       id="clipPath8">
      <path
         d="M 0,660 H 660 V 0 H 0 Z"
         transform="translate(-26.540001,-383.22121)"
         id="path8" />
    </clipPath>
    <clipPath
       clipPathUnits="userSpaceOnUse"
       id="clipPath10">
      <path
         d="M 0,660 H 660 V 0 H 0 Z"
         transform="translate(-45.692401,-360.78611)"
         id="path10" />
    </clipPath>
    <clipPath
       clipPathUnits="userSpaceOnUse"
       id="clipPath12">
      <path
         d="M 0,660 H 660 V 0 H 0 Z"
         transform="translate(-89.468305,-372.82471)"
         id="path12" />
    </clipPath>
    <clipPath
       clipPathUnits="userSpaceOnUse"
       id="clipPath14">
      <path
         d="M 0,660 H 660 V 0 H 0 Z"
         transform="translate(-131.0557,-358.59671)"
         id="path14" />
    </clipPath>
    <clipPath
       clipPathUnits="userSpaceOnUse"
       id="clipPath16">
      <path
         d="M 0,660 H 660 V 0 H 0 Z"
         transform="translate(-174.2686,-371.73001)"
         id="path16" />
    </clipPath>
    <clipPath
       clipPathUnits="userSpaceOnUse"
       id="clipPath18">
      <path
         d="M 0,660 H 660 V 0 H 0 Z"
         transform="translate(-253.3315,-369.54101)"
         id="path18" />
    </clipPath>
    <clipPath
       clipPathUnits="userSpaceOnUse"
       id="clipPath20">
      <path
         d="M 0,660 H 660 V 0 H 0 Z"
         transform="translate(-311.08541,-377.20211)"
         id="path20" />
    </clipPath>
    <clipPath
       clipPathUnits="userSpaceOnUse"
       id="clipPath22">
      <path
         d="M 0,660 H 660 V 0 H 0 Z"
         transform="translate(-377.84381,-361.88091)"
         id="path22" />
    </clipPath>
    <clipPath
       clipPathUnits="userSpaceOnUse"
       id="clipPath24">
      <path
         d="M 0,660 H 660 V 0 H 0 Z"
         transform="translate(-434.72271,-366.25831)"
         id="path24" />
    </clipPath>
    <clipPath
       clipPathUnits="userSpaceOnUse"
       id="clipPath26">
      <path
         d="M 0,660 H 660 V 0 H 0 Z"
         transform="translate(-500.57231,-379.39111)"
         id="path26" />
    </clipPath>
    <clipPath
       clipPathUnits="userSpaceOnUse"
       id="clipPath28">
      <path
         d="M 0,660 H 660 V 0 H 0 Z"
         transform="translate(-571.00681,-392.52341)"
         id="path28" />
    </clipPath>
    <clipPath
       clipPathUnits="userSpaceOnUse"
       id="clipPath30">
      <path
         d="M 0,660 H 660 V 0 H 0 Z"
         transform="translate(-626.27342,-378.29691)"
         id="path30" />
    </clipPath>
    <clipPath
       clipPathUnits="userSpaceOnUse"
       id="clipPath32">
      <path
         d="M 0,660 H 660 V 0 H 0 Z"
         transform="translate(-296.85841,-358.59771)"
         id="path32" />
    </clipPath>
    <clipPath
       clipPathUnits="userSpaceOnUse"
       id="clipPath34">
      <path
         d="M 0,660 H 660 V 0 H 0 Z"
         transform="translate(-233.65581,-375.56051)"
         id="path34" />
    </clipPath>
    <clipPath
       clipPathUnits="userSpaceOnUse"
       id="clipPath36">
      <path
         d="M 0,660 H 660 V 0 H 0 Z"
         transform="translate(-159.78471,-365.71141)"
         id="path36" />
    </clipPath>
    <clipPath
       clipPathUnits="userSpaceOnUse"
       id="clipPath38">
      <path
         d="M 0,660 H 660 V 0 H 0 Z"
         transform="translate(-200.0044,-362.97461)"
         id="path38" />
    </clipPath>
    <clipPath
       clipPathUnits="userSpaceOnUse"
       id="clipPath40">
      <path
         d="M 0,660 H 660 V 0 H 0 Z"
         transform="translate(-187.8921,-366.60741)"
         id="path40" />
    </clipPath>
    <clipPath
       clipPathUnits="userSpaceOnUse"
       id="clipPath42">
      <path
         d="M 0,660 H 660 V 0 H 0 Z"
         transform="translate(-370.21781,-359.69141)"
         id="path42" />
    </clipPath>
    <clipPath
       clipPathUnits="userSpaceOnUse"
       id="clipPath44">
      <path
         d="M 0,660 H 660 V 0 H 0 Z"
         transform="translate(-411.78321,-354.76711)"
         id="path44" />
    </clipPath>
    <clipPath
       clipPathUnits="userSpaceOnUse"
       id="clipPath46">
      <path
         d="M 0,660 H 660 V 0 H 0 Z"
         transform="translate(-400.55271,-351.48341)"
         id="path46" />
    </clipPath>
    <clipPath
       clipPathUnits="userSpaceOnUse"
       id="clipPath48">
      <path
         d="M 0,660 H 660 V 0 H 0 Z"
         transform="translate(-426.81931,-363.52201)"
         id="path48" />
    </clipPath>
    <clipPath
       clipPathUnits="userSpaceOnUse"
       id="clipPath50">
      <path
         d="M 0,660 H 660 V 0 H 0 Z"
         transform="translate(-475.24611,-360.23931)"
         id="path50" />
    </clipPath>
    <clipPath
       clipPathUnits="userSpaceOnUse"
       id="clipPath52">
      <path
         d="M 0,660 H 660 V 0 H 0 Z"
         transform="translate(-459.37701,-359.69141)"
         id="path52" />
    </clipPath>
    <clipPath
       clipPathUnits="userSpaceOnUse"
       id="clipPath54">
      <path
         d="M 0,660 H 660 V 0 H 0 Z"
         transform="translate(-542.27831,-368.99411)"
         id="path54" />
    </clipPath>
    <clipPath
       clipPathUnits="userSpaceOnUse"
       id="clipPath56">
      <path
         d="M 0,660 H 660 V 0 H 0 Z"
         transform="translate(-522.25001,-363.87301)"
         id="path56" />
    </clipPath>
    <clipPath
       clipPathUnits="userSpaceOnUse"
       id="clipPath58">
      <path
         d="M 0,660 H 660 V 0 H 0 Z"
         transform="translate(-618.31151,-359.21241)"
         id="path58" />
    </clipPath>
    <clipPath
       clipPathUnits="userSpaceOnUse"
       id="clipPath60">
      <path
         d="M 0,660 H 660 V 0 H 0 Z"
         transform="translate(-591.52831,-396.90191)"
         id="path60" />
    </clipPath>
    <clipPath
       clipPathUnits="userSpaceOnUse"
       id="clipPath62">
      <path
         d="M 0,660 H 660 V 0 H 0 Z"
         transform="translate(-607.24612,-374.63721)"
         id="path62" />
    </clipPath>
    <clipPath
       clipPathUnits="userSpaceOnUse"
       id="clipPath64">
      <path
         d="M 0,660 H 660 V 0 H 0 Z"
         id="path64" />
    </clipPath>
    <clipPath
       clipPathUnits="userSpaceOnUse"
       id="clipPath66">
      <path
         d="M 0,660 H 660 V 0 H 0 Z"
         transform="translate(-660.43262,-318.07711)"
         id="path66" />
    </clipPath>
    <clipPath
       clipPathUnits="userSpaceOnUse"
       id="clipPath68">
      <path
         d="M 0,660 H 660 V 0 H 0 Z"
         transform="translate(-660.43262,-222.93261)"
         id="path68" />
    </clipPath>
    <clipPath
       clipPathUnits="userSpaceOnUse"
       id="clipPath70">
      <path
         d="M 0,660 H 660 V 0 H 0 Z"
         transform="translate(-660.43262,-243.0967)"
         id="path70" />
    </clipPath>
    <clipPath
       clipPathUnits="userSpaceOnUse"
       id="clipPath72">
      <path
         d="M 0,660 H 660 V 0 H 0 Z"
         id="path72" />
    </clipPath>
    <clipPath
       clipPathUnits="userSpaceOnUse"
       id="clipPath74">
      <path
         d="M 0,660 H 660 V 0 H 0 Z"
         id="path74" />
    </clipPath>
    <clipPath
       clipPathUnits="userSpaceOnUse"
       id="clipPath76">
      <path
         d="M 0,660 H 660 V 0 H 0 Z"
         id="path76" />
    </clipPath>
    <clipPath
       clipPathUnits="userSpaceOnUse"
       id="clipPath78">
      <path
         d="M 0,660 H 660 V 0 H 0 Z"
         id="path78" />
    </clipPath>
    <clipPath
       clipPathUnits="userSpaceOnUse"
       id="clipPath80">
      <path
         d="M 0,660 H 660 V 0 H 0 Z"
         id="path80" />
    </clipPath>
    <clipPath
       clipPathUnits="userSpaceOnUse"
       id="clipPath82">
      <path
         d="M 0,660 H 660 V 0 H 0 Z"
         id="path82" />
    </clipPath>
    <clipPath
       clipPathUnits="userSpaceOnUse"
       id="clipPath84">
      <path
         d="M 0,660 H 660 V 0 H 0 Z"
         id="path84" />
    </clipPath>
    <clipPath
       clipPathUnits="userSpaceOnUse"
       id="clipPath86">
      <path
         d="M 0,660 H 660 V 0 H 0 Z"
         id="path86" />
    </clipPath>
    <clipPath
       clipPathUnits="userSpaceOnUse"
       id="clipPath88">
      <path
         d="M 0,660 H 660 V 0 H 0 Z"
         id="path88" />
    </clipPath>
    <clipPath
       clipPathUnits="userSpaceOnUse"
       id="clipPath90">
      <path
         d="M 0,660 H 660 V 0 H 0 Z"
         id="path90" />
    </clipPath>
    <clipPath
       clipPathUnits="userSpaceOnUse"
       id="clipPath92">
      <path
         d="M 0,660 H 660 V 0 H 0 Z"
         id="path92" />
    </clipPath>
    <clipPath
       clipPathUnits="userSpaceOnUse"
       id="clipPath94">
      <path
         d="M 0,660 H 660 V 0 H 0 Z"
         id="path94" />
    </clipPath>
    <clipPath
       clipPathUnits="userSpaceOnUse"
       id="clipPath96">
      <path
         d="M 0,660 H 660 V 0 H 0 Z"
         id="path96" />
    </clipPath>
    <clipPath
       clipPathUnits="userSpaceOnUse"
       id="clipPath98">
      <path
         d="M 0,660 H 660 V 0 H 0 Z"
         id="path98" />
    </clipPath>
    <clipPath
       clipPathUnits="userSpaceOnUse"
       id="clipPath100">
      <path
         d="M 0,660 H 660 V 0 H 0 Z"
         transform="translate(-318.87161,-209.82231)"
         id="path100" />
    </clipPath>
    <clipPath
       clipPathUnits="userSpaceOnUse"
       id="clipPath102">
      <path
         d="M 0,660 H 660 V 0 H 0 Z"
         transform="translate(-479.40331,-224.4082)"
         id="path102" />
    </clipPath>
    <clipPath
       clipPathUnits="userSpaceOnUse"
       id="clipPath104">
      <path
         d="M 0,660 H 660 V 0 H 0 Z"
         transform="translate(-182.61231,-215.6602)"
         id="path104" />
    </clipPath>
    <clipPath
       clipPathUnits="userSpaceOnUse"
       id="clipPath106">
      <path
         d="M 0,660 H 660 V 0 H 0 Z"
         transform="translate(-479.40331,-148.2109)"
         id="path106" />
    </clipPath>
    <clipPath
       clipPathUnits="userSpaceOnUse"
       id="clipPath108">
      <path
         d="M 0,660 H 660 V 0 H 0 Z"
         transform="translate(-275.2183,-162.0391)"
         id="path108" />
    </clipPath>
  </defs>
  <sodipodi:namedview
     id="namedview1"
     pagecolor="#ffffff"
     bordercolor="#000000"
     borderopacity="0.25"
     inkscape:showpageshadow="2"
     inkscape:pageopacity="0.0"
     inkscape:pagecheckerboard="0"
     inkscape:deskcolor="#d1d1d1"
     inkscape:zoom="0.67272727"
     inkscape:cx="439.25676"
     inkscape:cy="440"
     inkscape:window-width="1440"
     inkscape:window-height="830"
     inkscape:window-x="-6"
     inkscape:window-y="-6"
     inkscape:window-maximized="1"
     inkscape:current-layer="g1">
    <inkscape:page
       x="0"
       y="0"
       inkscape:label="1"
       id="page1"
       width="880"
       height="880"
       margin="0 0 2.0293334 0.00384521"
       bleed="0" />
  </sodipodi:namedview>
  <g
     id="g1"
     inkscape:groupmode="layer"
     inkscape:label="1">
    <g
       id="group-MC0">
      <path
         id="path2"
         d="M 0.004,0 H 660 V 658.478 H 0.004 Z"
         style="fill:#d7f2f5;fill-opacity:1;fill-rule:nonzero;stroke:none"
         transform="matrix(1.3333333,0,0,-1.3333333,0,880)" />
      <path
         id="path3"
         d="m 0,0 c 31.947,0 58.003,26.055 58.003,58.003 0,31.948 -26.056,58.004 -58.003,58.004 -31.949,0 -58.004,-26.056 -58.004,-58.004 C -58.004,26.055 -31.949,0 0,0"
         style="fill:#ffffff;fill-opacity:1;fill-rule:evenodd;stroke:none"
         transform="matrix(1.3333333,0,0,-1.3333333,288.75067,225.6556)"
         clip-path="url(#clipPath4)" />
      <path
         id="path5"
         d="M 0,0 -3.554,-43.503 -7.107,-87.006 H 0 7.109 l -3.553,43.503 z m -41.587,-14.228 -4.974,-35.293 -4.976,-35.295 h 9.95 9.952 l -4.975,35.295 z m -165.801,10e-4 -7.094,-38.695 -1.921,15.439 -5.214,41.861 -5.212,-41.861 -5.214,-41.862 h 10.426 2.295 l -2.282,-12.448 h 14.216 14.216 l -7.109,38.782 z m 63.201,16.963 -8.412,-44.938 -1.277,-6.821 -0.4,1.836 -9.585,43.903 -9.585,-43.903 -9.587,-43.904 h 19.172 19.171 l -0.862,3.949 h 1.365 16.824 l -8.411,44.94 z m 45.765,-8.953 -6.193,-31.936 -0.401,-2.074 -5.518,30.377 -6.633,-36.525 -6.636,-36.526 h 13.269 13.268 l -2.326,12.81 h 1.17 4.484 l -0.326,-2.454 h 9.464 2.947 l -0.546,-3.106 h 12.084 12.085 l -6.042,34.27 -6.043,34.268 -6.042,-34.268 -1.774,-10.061 -1.936,14.623 -4.733,35.724 -4.731,-35.724 -1.201,-9.062 -1.497,7.728 z m -182.326,-6.915 -4.095,-22.933 -3.53,25.121 -6.637,-47.197 -6.634,-47.196 h 13.271 13.266 l -3.239,23.051 h 9.948 l -6.174,34.577 z m -56.603,3.829 3.673,-33.447 1.588,-14.452 1.239,4.964 8.536,34.18 7.494,-30.006 3.737,26.724 4.621,-33.038 4.62,-33.037 h -9.241 -9.241 l 0.14,0.997 h -2.13 -11.334 l 3.534,-24.324 h -15.139 -15.139 l 7.571,52.088 7.568,52.088 4.674,-32.159 z m -180.427,11.115 -5.395,-30.638 -1.632,-9.261 -4.037,24.476 -3.476,-21.069 -0.222,1.985 -4.264,38.167 -4.265,-38.167 -4.265,-38.168 h 8.53 8.529 l -0.475,4.259 h 8.65 l -1.178,7.138 h 3.5 3.494 l -0.807,-5.514 h 13.033 13.032 l -0.742,5.061 h 8.231 12.245 l -3.658,-12.448 h 20.141 4.939 l -0.597,-2.512 h 15.687 2.97 l -1.329,-5.784 h 20.037 7.904 l -2.009,-7.847 h 19.431 19.428 l -1.751,6.84 h 10.512 l -6.161,34.269 -6.16,34.269 -6.16,-34.269 -0.331,-1.833 -9.377,36.649 -9.716,-37.963 -1.313,-5.13 -4.279,18.63 -10.018,43.614 -10.019,-43.614 -2.442,-10.637 -1.373,5.77 -7.844,32.963 -7.843,-32.963 -0.445,-1.868 -1.671,5.684 -10.07,34.269 -10.07,-34.269 -3.39,-11.533 -6.5,29.523 -8.768,39.809 -8.768,-39.809 -3.177,-14.428 -2.06,14.085 -6.516,44.53 -6.516,-44.53 -2.398,-16.381 -1.409,8.007 z m 580.707,8.585 -9.003,-45.145 -2.941,-14.741 -7.207,37.451 -7.819,-40.63 -7.82,-40.631 h 15.639 15.638 l -2.579,13.407 h 6.092 18.009 l -5.5,27.575 h 6.458 1.089 l -0.229,-1.119 h 9.676 9.675 l -4.838,23.589 -4.837,23.59 -4.838,-23.59 -0.219,-1.071 -0.64,3.255 -4.839,24.655 -4.838,-24.655 -3.245,-16.519 -1.88,9.434 z"
         style="fill:#b8e7e8;fill-opacity:1;fill-rule:evenodd;stroke:none"
         transform="matrix(1.3333333,0,0,-1.3333333,738.4896,391.7188)"
         clip-path="url(#clipPath6)" />
      <path
         id="path7"
         d="m 0,0 9.004,-45.145 9.005,-45.144 H 0 -18.007 l 9.004,45.144 z"
         style="fill:#91d4cf;fill-opacity:1;fill-rule:evenodd;stroke:none"
         transform="matrix(1.3333333,0,0,-1.3333333,35.386667,369.0384)"
         clip-path="url(#clipPath8)" />
      <path
         id="path9"
         d="m 0,0 7.819,-40.63 7.819,-40.63 H 0 -15.639 l 7.819,40.63 z"
         style="fill:#91d4cf;fill-opacity:1;fill-rule:evenodd;stroke:none"
         transform="matrix(1.3333333,0,0,-1.3333333,60.9232,398.95187)"
         clip-path="url(#clipPath10)" />
      <path
         id="path11"
         d="M 0,0 3.555,-43.503 7.108,-87.005 H 0 -7.108 l 3.554,43.502 z"
         style="fill:#91d4cf;fill-opacity:1;fill-rule:evenodd;stroke:none"
         transform="matrix(1.3333333,0,0,-1.3333333,119.29107,382.9004)"
         clip-path="url(#clipPath12)" />
      <path
         id="path13"
         d="M 0,0 4.976,-35.295 9.952,-70.589 H 0 -9.951 l 4.975,35.294 z"
         style="fill:#91d4cf;fill-opacity:1;fill-rule:evenodd;stroke:none"
         transform="matrix(1.3333333,0,0,-1.3333333,174.74093,401.87107)"
         clip-path="url(#clipPath14)" />
      <path
         id="path15"
         d="M 0,0 4.731,-35.725 9.464,-71.45 H 0 -9.463 l 4.732,35.725 z"
         style="fill:#91d4cf;fill-opacity:1;fill-rule:evenodd;stroke:none"
         transform="matrix(1.3333333,0,0,-1.3333333,232.35813,384.36)"
         clip-path="url(#clipPath16)" />
      <path
         id="path17"
         d="M 0,0 9.585,-43.903 19.17,-87.808 H 0 -19.173 l 9.587,43.905 z"
         style="fill:#91d4cf;fill-opacity:1;fill-rule:evenodd;stroke:none"
         transform="matrix(1.3333333,0,0,-1.3333333,337.77533,387.27867)"
         clip-path="url(#clipPath18)" />
      <path
         id="path19"
         d="m 0,0 5.214,-41.861 5.212,-41.862 H 0 -10.426 l 5.212,41.862 z"
         style="fill:#91d4cf;fill-opacity:1;fill-rule:evenodd;stroke:none"
         transform="matrix(1.3333333,0,0,-1.3333333,414.78053,377.06387)"
         clip-path="url(#clipPath20)" />
      <path
         id="path21"
         d="m 0,0 6.635,-47.197 6.633,-47.197 H 0 -13.269 l 6.635,47.197 z"
         style="fill:#91d4cf;fill-opacity:1;fill-rule:evenodd;stroke:none"
         transform="matrix(1.3333333,0,0,-1.3333333,503.79173,397.49213)"
         clip-path="url(#clipPath22)" />
      <path
         id="path23"
         d="m 0,0 7.57,-52.088 7.569,-52.089 H 0 -15.137 l 7.569,52.089 z"
         style="fill:#91d4cf;fill-opacity:1;fill-rule:evenodd;stroke:none"
         transform="matrix(1.3333333,0,0,-1.3333333,579.63027,391.6556)"
         clip-path="url(#clipPath24)" />
      <path
         id="path25"
         d="M 0,0 10.017,-43.615 20.035,-87.23 H 0 -20.037 l 10.017,43.615 z"
         style="fill:#91d4cf;fill-opacity:1;fill-rule:evenodd;stroke:none"
         transform="matrix(1.3333333,0,0,-1.3333333,667.42973,374.1452)"
         clip-path="url(#clipPath26)" />
      <path
         id="path27"
         d="m 0,0 8.768,-39.809 8.765,-39.808 H 0 -17.535 l 8.767,39.808 z"
         style="fill:#91d4cf;fill-opacity:1;fill-rule:evenodd;stroke:none"
         transform="matrix(1.3333333,0,0,-1.3333333,761.3424,356.63547)"
         clip-path="url(#clipPath28)" />
      <path
         id="path29"
         d="M 0,0 4.267,-38.168 8.531,-76.335 H 0 -8.53 l 4.266,38.167 z"
         style="fill:#91d4cf;fill-opacity:1;fill-rule:evenodd;stroke:none"
         transform="matrix(1.3333333,0,0,-1.3333333,835.0312,375.60413)"
         clip-path="url(#clipPath30)" />
      <path
         id="path31"
         d="m 0,0 7.107,-38.783 7.109,-38.783 H 0 -14.218 l 7.109,38.783 z"
         style="fill:#91d4cf;fill-opacity:1;fill-rule:evenodd;stroke:none"
         transform="matrix(1.3333333,0,0,-1.3333333,395.8112,401.86973)"
         clip-path="url(#clipPath32)" />
      <path
         id="path33"
         d="m 0,0 8.411,-44.939 8.413,-44.94 H 0 -16.822 l 8.411,44.94 z"
         style="fill:#91d4cf;fill-opacity:1;fill-rule:evenodd;stroke:none"
         transform="matrix(1.3333333,0,0,-1.3333333,311.54107,379.25267)"
         clip-path="url(#clipPath34)" />
      <path
         id="path35"
         d="m 0,0 6.041,-34.269 6.042,-34.269 H 0 -12.085 l 6.043,34.269 z"
         style="fill:#91d4cf;fill-opacity:1;fill-rule:evenodd;stroke:none"
         transform="matrix(1.3333333,0,0,-1.3333333,213.04627,392.3848)"
         clip-path="url(#clipPath36)" />
      <path
         id="path37"
         d="m 0,0 6.633,-36.525 6.634,-36.527 H 0 -13.271 l 6.636,36.527 z"
         style="fill:#91d4cf;fill-opacity:1;fill-rule:evenodd;stroke:none"
         transform="matrix(1.3333333,0,0,-1.3333333,266.67253,396.03387)"
         clip-path="url(#clipPath38)" />
      <path
         id="path39"
         d="m 0,0 6.191,-31.937 6.192,-31.937 H 0 -12.385 l 6.193,31.937 z"
         style="fill:#91d4cf;fill-opacity:1;fill-rule:evenodd;stroke:none"
         transform="matrix(1.3333333,0,0,-1.3333333,250.5228,391.19013)"
         clip-path="url(#clipPath40)" />
      <path
         id="path41"
         d="M 0,0 6.174,-34.577 12.35,-69.152 H 0 -12.351 l 6.175,34.575 z"
         style="fill:#91d4cf;fill-opacity:1;fill-rule:evenodd;stroke:none"
         transform="matrix(1.3333333,0,0,-1.3333333,493.62373,400.41147)"
         clip-path="url(#clipPath42)" />
      <path
         id="path43"
         d="m 0,0 8.536,-34.18 8.536,-34.18 H 0 -17.071 l 8.536,34.18 z"
         style="fill:#91d4cf;fill-opacity:1;fill-rule:evenodd;stroke:none"
         transform="matrix(1.3333333,0,0,-1.3333333,549.04427,406.9772)"
         clip-path="url(#clipPath44)" />
      <path
         id="path45"
         d="m 0,0 4.621,-33.037 4.62,-33.038 H 0 -9.241 l 4.621,33.038 z"
         style="fill:#91d4cf;fill-opacity:1;fill-rule:evenodd;stroke:none"
         transform="matrix(1.3333333,0,0,-1.3333333,534.07027,411.35547)"
         clip-path="url(#clipPath46)" />
      <path
         id="path47"
         d="M 0,0 3.673,-33.447 7.346,-66.895 H 0 -7.346 l 3.673,33.448 z"
         style="fill:#91d4cf;fill-opacity:1;fill-rule:evenodd;stroke:none"
         transform="matrix(1.3333333,0,0,-1.3333333,569.0924,395.304)"
         clip-path="url(#clipPath48)" />
      <path
         id="path49"
         d="M 0,0 9.715,-37.963 19.43,-75.925 H 0 -19.43 l 9.715,37.962 z"
         style="fill:#91d4cf;fill-opacity:1;fill-rule:evenodd;stroke:none"
         transform="matrix(1.3333333,0,0,-1.3333333,633.66147,399.68093)"
         clip-path="url(#clipPath50)" />
      <path
         id="path51"
         d="m 0,0 6.161,-34.268 6.162,-34.269 H 0 -12.321 l 6.162,34.269 z"
         style="fill:#91d4cf;fill-opacity:1;fill-rule:evenodd;stroke:none"
         transform="matrix(1.3333333,0,0,-1.3333333,612.50267,400.41147)"
         clip-path="url(#clipPath52)" />
      <path
         id="path53"
         d="m 0,0 10.071,-34.268 10.07,-34.269 H 0 -20.141 l 10.072,34.269 z"
         style="fill:#91d4cf;fill-opacity:1;fill-rule:evenodd;stroke:none"
         transform="matrix(1.3333333,0,0,-1.3333333,723.03773,388.00787)"
         clip-path="url(#clipPath54)" />
      <path
         id="path55"
         d="m 0,0 7.843,-32.963 7.845,-32.965 H 0 -15.688 l 7.843,32.965 z"
         style="fill:#91d4cf;fill-opacity:1;fill-rule:evenodd;stroke:none"
         transform="matrix(1.3333333,0,0,-1.3333333,696.33333,394.836)"
         clip-path="url(#clipPath56)" />
      <path
         id="path57"
         d="M 0,0 -4.371,-26.496 -8.742,-52.993 H 0 8.742 l -4.371,26.497 z"
         style="fill:#91d4cf;fill-opacity:1;fill-rule:evenodd;stroke:none"
         transform="matrix(1.3333333,0,0,-1.3333333,824.41533,401.05013)"
         clip-path="url(#clipPath58)" />
      <path
         id="path59"
         d="m 0,0 6.517,-44.529 6.515,-44.528 H 0 -13.031 l 6.515,44.528 z"
         style="fill:#91d4cf;fill-opacity:1;fill-rule:evenodd;stroke:none"
         transform="matrix(1.3333333,0,0,-1.3333333,788.7044,350.79747)"
         clip-path="url(#clipPath60)" />
      <path
         id="path61"
         d="m 0,0 5.397,-30.639 5.396,-30.639 H 0 -10.791 l 5.395,30.639 z"
         style="fill:#91d4cf;fill-opacity:1;fill-rule:evenodd;stroke:none"
         transform="matrix(1.3333333,0,0,-1.3333333,809.66147,380.48373)"
         clip-path="url(#clipPath62)" />
      <path
         id="path63"
         d="M 0.004,309.894 H 660.433 V -1.951 H 0.004 Z"
         style="fill:#c6e446;fill-opacity:1;fill-rule:evenodd;stroke:none"
         transform="matrix(1.3333333,0,0,-1.3333333,0,880)"
         clip-path="url(#clipPath64)" />
      <path
         id="path65"
         d="m 0,0 v -320.028 h -660.429 v 287.596 c 32.969,3.477 71.608,7.631 109.796,4.185 148.128,-13.368 323.535,-1.613 437.573,23.17 C -74.862,3.225 -35.787,5.01 0,0"
         style="fill:#adda1a;fill-opacity:1;fill-rule:evenodd;stroke:none"
         transform="matrix(1.3333333,0,0,-1.3333333,880.5768,455.8972)"
         clip-path="url(#clipPath66)" />
      <path
         id="path67"
         d="M 0,0 V -224.884 H -660.429 V 80.608 C -547.681,79.219 -441.648,44.231 -332.94,15.367 -259.973,-4.01 -113.304,10.244 0,0"
         style="fill:#9ac421;fill-opacity:1;fill-rule:evenodd;stroke:none"
         transform="matrix(1.3333333,0,0,-1.3333333,880.5768,582.75653)"
         clip-path="url(#clipPath68)" />
      <path
         id="path69"
         d="M 0,0 V -245.048 H -660.429 V -8.294 c 145.722,-5.611 273.777,10.021 418.355,27.48 C -170.623,27.813 -75.716,15.938 0,0"
         style="fill:#87b027;fill-opacity:1;fill-rule:evenodd;stroke:none"
         transform="matrix(1.3333333,0,0,-1.3333333,880.5768,555.87107)"
         clip-path="url(#clipPath70)" />
      <path
         id="path71"
         d="M 0.004,-1.951 H 660.433 V 195.523 H 0.004 Z"
         style="fill:#54c6c8;fill-opacity:1;fill-rule:evenodd;stroke:none"
         transform="matrix(1.3333333,0,0,-1.3333333,0,880)"
         clip-path="url(#clipPath72)" />
      <path
         id="path73"
         d="m 0.004,185.129 h 660.429 v 10.394 H 0.004 Z"
         style="fill:#4bbfc3;fill-opacity:1;fill-rule:evenodd;stroke:none"
         transform="matrix(1.3333333,0,0,-1.3333333,0,880)"
         clip-path="url(#clipPath74)" />
      <path
         id="path75"
         d="m 0.003,138.35 h 660.43 v 3.498 H 0.003 Z"
         style="fill:#61cace;fill-opacity:1;fill-rule:evenodd;stroke:none"
         transform="matrix(1.3333333,0,0,-1.3333333,0,880)"
         clip-path="url(#clipPath76)" />
      <path
         id="path77"
         d="m 0.004,91.289 h 660.429 v 5.497 H 0.004 Z"
         style="fill:#61cace;fill-opacity:1;fill-rule:evenodd;stroke:none"
         transform="matrix(1.3333333,0,0,-1.3333333,0,880)"
         clip-path="url(#clipPath78)" />
      <path
         id="path79"
         d="m 0.004,37.664 h 660.429 v 3.283 H 0.004 Z"
         style="fill:#61cace;fill-opacity:1;fill-rule:evenodd;stroke:none"
         transform="matrix(1.3333333,0,0,-1.3333333,0,880)"
         clip-path="url(#clipPath80)" />
      <path
         id="path81"
         d="m 0.004,121.385 h 493.299 v 2.189 H 0.004 Z"
         style="fill:#61cace;fill-opacity:1;fill-rule:evenodd;stroke:none"
         transform="matrix(1.3333333,0,0,-1.3333333,0,880)"
         clip-path="url(#clipPath82)" />
      <path
         id="path83"
         d="m 0.003,60.646 h 194.526 v 2.736 H 0.003 Z"
         style="fill:#61cace;fill-opacity:1;fill-rule:evenodd;stroke:none"
         transform="matrix(1.3333333,0,0,-1.3333333,0,880)"
         clip-path="url(#clipPath84)" />
      <path
         id="path85"
         d="M 337.897,6.475 H 660.432 V 9.21 H 337.897 Z"
         style="fill:#61cace;fill-opacity:1;fill-rule:evenodd;stroke:none"
         transform="matrix(1.3333333,0,0,-1.3333333,0,880)"
         clip-path="url(#clipPath86)" />
      <path
         id="path87"
         d="m 0.003,609.828 h 660.43 v 3.499 H 0.003 Z"
         style="fill:#ebf8fb;fill-opacity:1;fill-rule:evenodd;stroke:none"
         transform="matrix(1.3333333,0,0,-1.3333333,0,880)"
         clip-path="url(#clipPath88)" />
      <path
         id="path89"
         d="m 0.004,514.825 h 660.429 v 5.497 H 0.004 Z"
         style="fill:#ebf8fb;fill-opacity:1;fill-rule:evenodd;stroke:none"
         transform="matrix(1.3333333,0,0,-1.3333333,0,880)"
         clip-path="url(#clipPath90)" />
      <path
         id="path91"
         d="m 0.004,461.199 h 660.429 v 3.283 H 0.004 Z"
         style="fill:#ebf8fb;fill-opacity:1;fill-rule:evenodd;stroke:none"
         transform="matrix(1.3333333,0,0,-1.3333333,0,880)"
         clip-path="url(#clipPath92)" />
      <path
         id="path93"
         d="m 0.004,575.023 h 493.299 v 2.189 H 0.004 Z"
         style="fill:#ebf8fb;fill-opacity:1;fill-rule:evenodd;stroke:none"
         transform="matrix(1.3333333,0,0,-1.3333333,0,880)"
         clip-path="url(#clipPath94)" />
      <path
         id="path95"
         d="m 0.003,484.182 h 194.526 v 2.736 H 0.003 Z"
         style="fill:#ebf8fb;fill-opacity:1;fill-rule:evenodd;stroke:none"
         transform="matrix(1.3333333,0,0,-1.3333333,0,880)"
         clip-path="url(#clipPath96)" />
      <path
         id="path97"
         d="m 337.897,430.009 h 322.535 v 2.736 H 337.897 Z"
         style="fill:#ebf8fb;fill-opacity:1;fill-rule:evenodd;stroke:none"
         transform="matrix(1.3333333,0,0,-1.3333333,0,880)"
         clip-path="url(#clipPath98)" />
      <path
         id="path99"
         d="m 0,0 c -1.91,0 -3.457,-1.548 -3.457,-3.458 0,-1.909 1.547,-3.458 3.457,-3.458 1.909,0 3.459,1.549 3.459,3.458 C 3.459,-1.548 1.909,0 0,0 m 0,1.706 c 2.854,0 5.164,-2.313 5.164,-5.164 0,-2.851 -2.31,-5.163 -5.164,-5.163 -2.85,0 -5.162,2.312 -5.162,5.163 0,2.851 2.312,5.164 5.162,5.164"
         style="fill:#5d381a;fill-opacity:1;fill-rule:evenodd;stroke:none"
         transform="matrix(1.3333333,0,0,-1.3333333,425.16213,600.23693)"
         clip-path="url(#clipPath100)" />
      <path
         id="path101"
         d="M 0,0 C -1.661,-19.118 -14.743,-36.552 -35.495,-50.203 H -262.876 C -283.627,-36.552 -296.709,-19.118 -298.371,0 -216.153,-25.103 -75.563,-26.313 0,0"
         style="fill:#7f5127;fill-opacity:1;fill-rule:evenodd;stroke:none"
         transform="matrix(1.3333333,0,0,-1.3333333,639.2044,580.78907)"
         clip-path="url(#clipPath102)" />
      <path
         id="path103"
         d="M 0,0 C -0.11,0.401 -0.216,0.805 -0.317,1.209 H 28.126 C 30.1,0.794 32.096,0.392 34.109,0 Z m 3.493,-9.207 c -0.196,0.402 -0.386,0.806 -0.572,1.211 h 89.551 c 5.401,-0.467 10.846,-0.872 16.323,-1.211 z M 269.41,-35.615 c -0.514,-0.406 -1.033,-0.809 -1.56,-1.209 H 27.36 c -0.527,0.4 -1.046,0.803 -1.56,1.209 z m 10.143,9.206 c -0.385,-0.405 -0.774,-0.809 -1.169,-1.21 H 16.828 c -0.396,0.401 -0.786,0.805 -1.169,1.21 z m 7.49,9.205 c -0.278,-0.404 -0.56,-0.807 -0.849,-1.209 H 9.017 c -0.289,0.402 -0.57,0.805 -0.848,1.209 z m 5.245,9.208 c -0.184,-0.405 -0.376,-0.809 -0.569,-1.211 h -97.173 c 5.316,0.339 10.587,0.74 15.79,1.211 z m 3.238,9.205 C 295.427,0.805 295.322,0.401 295.212,0 h -30.346 c 1.829,0.392 3.643,0.794 5.431,1.209 z"
         style="fill:#5d381a;fill-opacity:1;fill-rule:evenodd;stroke:none"
         transform="matrix(1.3333333,0,0,-1.3333333,243.48307,592.45307)"
         clip-path="url(#clipPath104)" />
      <path
         id="path105"
         d="M 0,0 C -1.661,9.898 -14.743,18.924 -35.495,25.994 H -262.876 C -283.627,18.924 -296.709,9.898 -298.371,0 -216.153,12.998 -75.563,13.623 0,0"
         style="fill:#45b4ba;fill-opacity:1;fill-rule:evenodd;stroke:none"
         transform="matrix(1.3333333,0,0,-1.3333333,639.2044,682.38547)"
         clip-path="url(#clipPath106)" />
      <path
         id="path107"
         d="m 0,0 h 3.931 l 56.896,61.389 c 0.999,1.078 -1.027,3.136 -2.051,2.031 z"
         style="fill:#5d381a;fill-opacity:1;fill-rule:evenodd;stroke:none"
         transform="matrix(1.3333333,0,0,-1.3333333,366.95773,663.94787)"
         clip-path="url(#clipPath108)" />
    </g>
  </g>
</svg>
